<svg width="2000" height="2000" viewBox="0 0 2000 2000" fill="none" xmlns="http://www.w3.org/2000/svg">
<path d="M0 0H2000V2000H0V0Z" fill="#570F41"/>
<rect x="225.5" y="225.5" width="1559" height="1559" rx="99.5" fill="#D9D9D9" stroke="black"/>
<path d="M956.753 1232H698.941V504.727H958.884C1032.04 504.727 1095.01 519.287 1147.8 548.406C1200.6 577.289 1241.2 618.837 1269.61 673.051C1298.25 727.265 1312.58 792.133 1312.58 867.653C1312.58 943.411 1298.25 1008.52 1269.61 1062.97C1241.2 1117.42 1200.36 1159.2 1147.09 1188.32C1094.06 1217.44 1030.62 1232 956.753 1232ZM852.705 1100.25H950.361C995.816 1100.25 1034.05 1092.2 1065.06 1076.11C1096.31 1059.77 1119.75 1034.56 1135.38 1000.47C1151.24 966.138 1159.17 921.867 1159.17 867.653C1159.17 813.913 1151.24 769.997 1135.38 735.906C1119.75 701.815 1096.43 676.721 1065.42 660.622C1034.4 644.524 996.171 636.474 950.716 636.474H852.705V1100.25Z" fill="#521B41"/>
<path d="M592.802 1293.38C592.234 1287.65 589.796 1283.2 585.487 1280.03C581.178 1276.85 575.331 1275.27 567.944 1275.27C562.926 1275.27 558.688 1275.98 555.231 1277.4C551.775 1278.77 549.123 1280.69 547.277 1283.15C545.478 1285.61 544.578 1288.41 544.578 1291.53C544.483 1294.14 545.028 1296.41 546.212 1298.35C547.443 1300.29 549.123 1301.97 551.254 1303.39C553.385 1304.77 555.847 1305.97 558.641 1307.01C561.434 1308.01 564.417 1308.86 567.589 1309.57L580.658 1312.7C587.002 1314.12 592.826 1316.01 598.129 1318.38C603.432 1320.75 608.025 1323.66 611.908 1327.11C615.79 1330.57 618.797 1334.64 620.927 1339.33C623.105 1344.02 624.218 1349.39 624.266 1355.45C624.218 1364.35 621.945 1372.07 617.447 1378.61C612.997 1385.09 606.557 1390.13 598.129 1393.73C589.748 1397.28 579.64 1399.06 567.802 1399.06C556.06 1399.06 545.833 1397.26 537.121 1393.66C528.456 1390.06 521.685 1384.74 516.808 1377.68C511.979 1370.58 509.445 1361.8 509.209 1351.33H538.967C539.299 1356.21 540.695 1360.28 543.158 1363.55C545.667 1366.77 549.005 1369.21 553.172 1370.86C557.386 1372.47 562.144 1373.28 567.447 1373.28C572.656 1373.28 577.177 1372.52 581.013 1371.01C584.895 1369.49 587.902 1367.38 590.033 1364.68C592.163 1361.99 593.229 1358.88 593.229 1355.38C593.229 1352.11 592.258 1349.37 590.317 1347.14C588.423 1344.92 585.629 1343.02 581.936 1341.46C578.29 1339.9 573.816 1338.48 568.513 1337.2L552.675 1333.22C540.411 1330.24 530.729 1325.57 523.626 1319.23C516.524 1312.89 512.997 1304.34 513.044 1293.59C512.997 1284.78 515.34 1277.09 520.075 1270.51C524.857 1263.93 531.415 1258.79 539.748 1255.1C548.082 1251.4 557.552 1249.56 568.158 1249.56C578.953 1249.56 588.375 1251.4 596.425 1255.1C604.521 1258.79 610.819 1263.93 615.317 1270.51C619.815 1277.09 622.135 1284.71 622.277 1293.38H592.802ZM693.672 1399.13C682.64 1399.13 673.1 1396.79 665.05 1392.1C657.048 1387.36 650.869 1380.78 646.513 1372.36C642.157 1363.88 639.979 1354.05 639.979 1342.88C639.979 1331.61 642.157 1321.76 646.513 1313.34C650.869 1304.86 657.048 1298.28 665.05 1293.59C673.1 1288.86 682.64 1286.49 693.672 1286.49C704.705 1286.49 714.222 1288.86 722.224 1293.59C730.273 1298.28 736.476 1304.86 740.832 1313.34C745.188 1321.76 747.366 1331.61 747.366 1342.88C747.366 1354.05 745.188 1363.88 740.832 1372.36C736.476 1380.78 730.273 1387.36 722.224 1392.1C714.222 1396.79 704.705 1399.13 693.672 1399.13ZM693.815 1375.69C698.833 1375.69 703.024 1374.27 706.386 1371.43C709.747 1368.54 712.28 1364.61 713.985 1359.64C715.737 1354.67 716.613 1349.01 716.613 1342.67C716.613 1336.32 715.737 1330.66 713.985 1325.69C712.28 1320.72 709.747 1316.79 706.386 1313.9C703.024 1311.02 698.833 1309.57 693.815 1309.57C688.748 1309.57 684.487 1311.02 681.03 1313.9C677.621 1316.79 675.041 1320.72 673.289 1325.69C671.584 1330.66 670.732 1336.32 670.732 1342.67C670.732 1349.01 671.584 1354.67 673.289 1359.64C675.041 1364.61 677.621 1368.54 681.03 1371.43C684.487 1374.27 688.748 1375.69 693.815 1375.69ZM825.704 1287.91V1310.64H758.374V1287.91H825.704ZM773.786 1397V1280.03C773.786 1272.12 775.325 1265.56 778.403 1260.35C781.528 1255.14 785.789 1251.24 791.187 1248.63C796.584 1246.03 802.716 1244.73 809.582 1244.73C814.222 1244.73 818.459 1245.08 822.295 1245.79C826.177 1246.5 829.065 1247.14 830.959 1247.71L825.562 1270.44C824.378 1270.06 822.91 1269.7 821.158 1269.37C819.454 1269.04 817.702 1268.88 815.903 1268.88C811.452 1268.88 808.351 1269.92 806.599 1272C804.847 1274.04 803.971 1276.9 803.971 1280.59V1397H773.786ZM902.213 1287.91V1310.64H836.517V1287.91H902.213ZM851.432 1261.77H881.687V1363.48C881.687 1366.27 882.114 1368.45 882.966 1370.01C883.818 1371.53 885.002 1372.59 886.517 1373.21C888.079 1373.82 889.879 1374.13 891.915 1374.13C893.335 1374.13 894.756 1374.01 896.176 1373.78C897.596 1373.49 898.685 1373.28 899.443 1373.14L904.202 1395.65C902.686 1396.12 900.556 1396.67 897.81 1397.28C895.063 1397.95 891.725 1398.35 887.795 1398.49C880.504 1398.78 874.112 1397.8 868.619 1395.58C863.174 1393.35 858.936 1389.9 855.906 1385.21C852.876 1380.52 851.384 1374.6 851.432 1367.45V1261.77ZM966.524 1399.13C956.581 1399.13 948.034 1397.33 940.885 1393.73C933.735 1390.13 928.219 1385.28 924.337 1379.17C920.501 1373.02 918.584 1366.08 918.584 1358.36C918.584 1352.54 919.767 1347.38 922.135 1342.88C924.55 1338.38 927.864 1334.22 932.078 1330.38C936.339 1326.55 941.264 1322.73 946.851 1318.95L972.632 1301.4C976.42 1298.94 979.284 1296.34 981.226 1293.59C983.214 1290.84 984.209 1287.62 984.209 1283.93C984.209 1280.81 982.883 1277.85 980.231 1275.05C977.627 1272.26 974.029 1270.86 969.436 1270.86C966.358 1270.86 963.636 1271.6 961.268 1273.07C958.948 1274.49 957.125 1276.36 955.8 1278.68C954.521 1281 953.882 1283.46 953.882 1286.06C953.882 1289.23 954.758 1292.45 956.51 1295.72C958.309 1298.99 960.629 1302.37 963.47 1305.88C966.358 1309.38 969.436 1313.1 972.703 1317.03L1040.96 1397H1013.11L956.439 1332.09C952.225 1327.16 948.153 1322.31 944.223 1317.53C940.34 1312.74 937.144 1307.77 934.635 1302.61C932.173 1297.4 930.942 1291.77 930.942 1285.71C930.942 1278.84 932.528 1272.71 935.7 1267.31C938.873 1261.87 943.3 1257.58 948.981 1254.46C954.711 1251.33 961.41 1249.77 969.081 1249.77C976.751 1249.77 983.333 1251.29 988.825 1254.32C994.318 1257.35 998.555 1261.37 1001.54 1266.39C1004.52 1271.41 1006.01 1276.88 1006.01 1282.8C1006.01 1289.66 1004.31 1295.82 1000.9 1301.26C997.49 1306.66 992.755 1311.56 986.694 1315.96L957.291 1337.48C952.462 1340.99 949.005 1344.54 946.922 1348.14C944.838 1351.69 943.797 1354.72 943.797 1357.23C943.797 1361.06 944.767 1364.54 946.709 1367.67C948.65 1370.79 951.373 1373.3 954.876 1375.2C958.427 1377.04 962.57 1377.97 967.305 1377.97C972.514 1377.97 977.651 1376.81 982.717 1374.49C987.784 1372.12 992.4 1368.76 996.567 1364.4C1000.73 1360.04 1004.05 1354.84 1006.51 1348.78C1008.97 1342.67 1010.2 1335.9 1010.2 1328.46H1032.29C1032.29 1337.65 1031.27 1345.65 1029.24 1352.47C1027.2 1359.24 1024.57 1364.97 1021.35 1369.66C1018.13 1374.3 1014.72 1378.01 1011.13 1380.81C1009.99 1381.61 1008.9 1382.42 1007.86 1383.22C1006.82 1384.03 1005.73 1384.83 1004.59 1385.64C999.479 1390.28 993.489 1393.69 986.623 1395.86C979.805 1398.04 973.105 1399.13 966.524 1399.13ZM1106.67 1397H1055.11V1251.55H1107.1C1121.73 1251.55 1134.32 1254.46 1144.88 1260.28C1155.44 1266.06 1163.56 1274.37 1169.24 1285.21C1174.97 1296.05 1177.83 1309.03 1177.83 1324.13C1177.83 1339.28 1174.97 1352.3 1169.24 1363.19C1163.56 1374.08 1155.39 1382.44 1144.74 1388.26C1134.13 1394.09 1121.44 1397 1106.67 1397ZM1085.86 1370.65H1105.39C1114.48 1370.65 1122.13 1369.04 1128.33 1365.82C1134.58 1362.55 1139.27 1357.51 1142.39 1350.69C1145.57 1343.83 1147.15 1334.97 1147.15 1324.13C1147.15 1313.38 1145.57 1304.6 1142.39 1297.78C1139.27 1290.96 1134.61 1285.94 1128.4 1282.72C1122.2 1279.5 1114.55 1277.89 1105.46 1277.89H1085.86V1370.65ZM1231.15 1399.06C1224.19 1399.06 1217.99 1397.85 1212.55 1395.44C1207.1 1392.98 1202.79 1389.35 1199.62 1384.57C1196.5 1379.74 1194.93 1373.73 1194.93 1366.53C1194.93 1360.47 1196.05 1355.38 1198.27 1351.26C1200.5 1347.14 1203.53 1343.83 1207.36 1341.32C1211.2 1338.81 1215.55 1336.91 1220.43 1335.64C1225.35 1334.36 1230.52 1333.46 1235.91 1332.94C1242.26 1332.27 1247.37 1331.66 1251.25 1331.09C1255.14 1330.48 1257.95 1329.58 1259.71 1328.39C1261.46 1327.21 1262.33 1325.46 1262.33 1323.14V1322.71C1262.33 1318.21 1260.91 1314.73 1258.07 1312.27C1255.28 1309.81 1251.3 1308.58 1246.14 1308.58C1240.7 1308.58 1236.36 1309.78 1233.14 1312.2C1229.92 1314.57 1227.79 1317.55 1226.75 1321.15L1198.77 1318.88C1200.19 1312.25 1202.98 1306.52 1207.15 1301.69C1211.32 1296.81 1216.69 1293.07 1223.27 1290.47C1229.9 1287.81 1237.57 1286.49 1246.28 1286.49C1252.34 1286.49 1258.14 1287.2 1263.68 1288.62C1269.27 1290.04 1274.22 1292.24 1278.53 1295.22C1282.88 1298.21 1286.32 1302.04 1288.83 1306.73C1291.33 1311.37 1292.59 1316.93 1292.59 1323.42V1397H1263.9V1381.87H1263.04C1261.29 1385.28 1258.95 1388.29 1256.01 1390.89C1253.08 1393.45 1249.55 1395.46 1245.43 1396.93C1241.31 1398.35 1236.55 1399.06 1231.15 1399.06ZM1239.82 1378.18C1244.27 1378.18 1248.2 1377.3 1251.61 1375.55C1255.02 1373.75 1257.69 1371.34 1259.63 1368.31C1261.58 1365.28 1262.55 1361.84 1262.55 1358.01V1346.43C1261.6 1347.05 1260.3 1347.62 1258.64 1348.14C1257.03 1348.61 1255.21 1349.06 1253.17 1349.49C1251.14 1349.86 1249.1 1350.22 1247.06 1350.55C1245.03 1350.84 1243.18 1351.1 1241.52 1351.33C1237.97 1351.85 1234.87 1352.68 1232.22 1353.82C1229.57 1354.95 1227.51 1356.49 1226.04 1358.43C1224.57 1360.33 1223.84 1362.7 1223.84 1365.54C1223.84 1369.66 1225.33 1372.8 1228.31 1374.98C1231.34 1377.11 1235.18 1378.18 1239.82 1378.18ZM1374.09 1287.91V1310.64H1308.39V1287.91H1374.09ZM1323.31 1261.77H1353.56V1363.48C1353.56 1366.27 1353.99 1368.45 1354.84 1370.01C1355.69 1371.53 1356.88 1372.59 1358.39 1373.21C1359.95 1373.82 1361.75 1374.13 1363.79 1374.13C1365.21 1374.13 1366.63 1374.01 1368.05 1373.78C1369.47 1373.49 1370.56 1373.28 1371.32 1373.14L1376.08 1395.65C1374.56 1396.12 1372.43 1396.67 1369.68 1397.28C1366.94 1397.95 1363.6 1398.35 1359.67 1398.49C1352.38 1398.78 1345.99 1397.8 1340.49 1395.58C1335.05 1393.35 1330.81 1389.9 1327.78 1385.21C1324.75 1380.52 1323.26 1374.6 1323.31 1367.45V1261.77ZM1424.9 1399.06C1417.94 1399.06 1411.74 1397.85 1406.3 1395.44C1400.85 1392.98 1396.54 1389.35 1393.37 1384.57C1390.25 1379.74 1388.68 1373.73 1388.68 1366.53C1388.68 1360.47 1389.8 1355.38 1392.02 1351.26C1394.25 1347.14 1397.28 1343.83 1401.11 1341.32C1404.95 1338.81 1409.3 1336.91 1414.18 1335.64C1419.1 1334.36 1424.27 1333.46 1429.66 1332.94C1436.01 1332.27 1441.12 1331.66 1445 1331.09C1448.89 1330.48 1451.7 1329.58 1453.46 1328.39C1455.21 1327.21 1456.08 1325.46 1456.08 1323.14V1322.71C1456.08 1318.21 1454.66 1314.73 1451.82 1312.27C1449.03 1309.81 1445.05 1308.58 1439.89 1308.58C1434.45 1308.58 1430.11 1309.78 1426.89 1312.2C1423.67 1314.57 1421.54 1317.55 1420.5 1321.15L1392.52 1318.88C1393.94 1312.25 1396.73 1306.52 1400.9 1301.69C1405.07 1296.81 1410.44 1293.07 1417.02 1290.47C1423.65 1287.81 1431.32 1286.49 1440.03 1286.49C1446.09 1286.49 1451.89 1287.2 1457.43 1288.62C1463.02 1290.04 1467.97 1292.24 1472.28 1295.22C1476.63 1298.21 1480.07 1302.04 1482.58 1306.73C1485.08 1311.37 1486.34 1316.93 1486.34 1323.42V1397H1457.65V1381.87H1456.79C1455.04 1385.28 1452.7 1388.29 1449.76 1390.89C1446.83 1393.45 1443.3 1395.46 1439.18 1396.93C1435.06 1398.35 1430.3 1399.06 1424.9 1399.06ZM1433.57 1378.18C1438.02 1378.18 1441.95 1377.3 1445.36 1375.55C1448.77 1373.75 1451.44 1371.34 1453.38 1368.31C1455.33 1365.28 1456.3 1361.84 1456.3 1358.01V1346.43C1455.35 1347.05 1454.05 1347.62 1452.39 1348.14C1450.78 1348.61 1448.96 1349.06 1446.92 1349.49C1444.89 1349.86 1442.85 1350.22 1440.81 1350.55C1438.78 1350.84 1436.93 1351.1 1435.27 1351.33C1431.72 1351.85 1428.62 1352.68 1425.97 1353.82C1423.32 1354.95 1421.26 1356.49 1419.79 1358.43C1418.32 1360.33 1417.59 1362.7 1417.59 1365.54C1417.59 1369.66 1419.08 1372.8 1422.06 1374.98C1425.09 1377.11 1428.93 1378.18 1433.57 1378.18Z" fill="#1A365D"/>
<path d="M512.5 1408.38H577.812V1421.19H525.312V1446.81H570.125V1459.62H525.312V1485.19H577.812V1498H512.5V1408.38ZM654.625 1498H642.312V1443.75H608V1498H595.75V1431.44H608V1443.19C608.083 1441.56 608.458 1440.04 609.125 1438.62C609.792 1437.17 610.667 1435.92 611.75 1434.88C612.875 1433.79 614.167 1432.96 615.625 1432.38C617.083 1431.75 618.646 1431.44 620.312 1431.44H642.312C644.021 1431.44 645.625 1431.77 647.125 1432.44C648.625 1433.06 649.917 1433.94 651 1435.06C652.125 1436.15 653 1437.44 653.625 1438.94C654.292 1440.44 654.625 1442.04 654.625 1443.75V1498ZM675.125 1443.75C675.125 1442.04 675.438 1440.44 676.062 1438.94C676.729 1437.44 677.604 1436.15 678.688 1435.06C679.812 1433.94 681.125 1433.06 682.625 1432.44C684.125 1431.77 685.708 1431.44 687.375 1431.44H709.438C711.062 1431.44 712.604 1431.75 714.062 1432.38C715.521 1432.96 716.792 1433.79 717.875 1434.88C719 1435.92 719.896 1437.17 720.562 1438.62C721.271 1440.04 721.646 1441.56 721.688 1443.19V1431.44H734V1512.56C734 1514.27 733.667 1515.88 733 1517.38C732.375 1518.88 731.5 1520.17 730.375 1521.25C729.292 1522.38 728 1523.25 726.5 1523.88C725 1524.54 723.396 1524.88 721.688 1524.88H682.812V1512.56H721.688V1495.44H687.375C685.708 1495.44 684.125 1495.12 682.625 1494.5C681.125 1493.83 679.812 1492.96 678.688 1491.88C677.604 1490.75 676.729 1489.44 676.062 1487.94C675.438 1486.44 675.125 1484.83 675.125 1483.12V1443.75ZM721.688 1483.12V1443.75H687.375V1483.12H721.688ZM767.438 1431.44V1498H755.125V1431.44H767.438ZM754.5 1405.81H768.062V1418.62H754.5V1405.81ZM847.5 1498H835.188V1443.75H800.875V1498H788.625V1431.44H800.875V1443.19C800.958 1441.56 801.333 1440.04 802 1438.62C802.667 1437.17 803.542 1435.92 804.625 1434.88C805.75 1433.79 807.042 1432.96 808.5 1432.38C809.958 1431.75 811.521 1431.44 813.188 1431.44H835.188C836.896 1431.44 838.5 1431.77 840 1432.44C841.5 1433.06 842.792 1433.94 843.875 1435.06C845 1436.15 845.875 1437.44 846.5 1438.94C847.167 1440.44 847.5 1442.04 847.5 1443.75V1498ZM924.312 1471H880.25V1485.69H924.312V1498H880.25C878.583 1498 877 1497.69 875.5 1497.06C874 1496.4 872.688 1495.52 871.562 1494.44C870.479 1493.31 869.604 1492 868.938 1490.5C868.312 1489 868 1487.4 868 1485.69V1443.75C868 1442.04 868.312 1440.44 868.938 1438.94C869.604 1437.44 870.479 1436.15 871.562 1435.06C872.688 1433.94 874 1433.06 875.5 1432.44C877 1431.77 878.583 1431.44 880.25 1431.44H912C913.708 1431.44 915.312 1431.77 916.812 1432.44C918.312 1433.06 919.604 1433.94 920.688 1435.06C921.812 1436.15 922.688 1437.44 923.312 1438.94C923.979 1440.44 924.312 1442.04 924.312 1443.75V1471ZM880.25 1443.75V1458.69H912V1443.75H880.25ZM1001.19 1471H957.125V1485.69H1001.19V1498H957.125C955.458 1498 953.875 1497.69 952.375 1497.06C950.875 1496.4 949.562 1495.52 948.438 1494.44C947.354 1493.31 946.479 1492 945.812 1490.5C945.188 1489 944.875 1487.4 944.875 1485.69V1443.75C944.875 1442.04 945.188 1440.44 945.812 1438.94C946.479 1437.44 947.354 1436.15 948.438 1435.06C949.562 1433.94 950.875 1433.06 952.375 1432.44C953.875 1431.77 955.458 1431.44 957.125 1431.44H988.875C990.583 1431.44 992.188 1431.77 993.688 1432.44C995.188 1433.06 996.479 1433.94 997.562 1435.06C998.688 1436.15 999.562 1437.44 1000.19 1438.94C1000.85 1440.44 1001.19 1442.04 1001.19 1443.75V1471ZM957.125 1443.75V1458.69H988.875V1443.75H957.125ZM1034 1443.75V1498H1021.75V1431.44H1034V1443.19C1034.08 1441.56 1034.46 1440.04 1035.12 1438.62C1035.79 1437.17 1036.67 1435.92 1037.75 1434.88C1038.88 1433.79 1040.17 1432.96 1041.62 1432.38C1043.08 1431.75 1044.65 1431.44 1046.31 1431.44H1059.38C1061.08 1431.44 1062.67 1431.77 1064.12 1432.44C1065.62 1433.06 1066.94 1433.94 1068.06 1435.06C1069.19 1436.15 1070.06 1437.44 1070.69 1438.94C1071.35 1440.44 1071.69 1442.04 1071.69 1443.75V1455H1059.38V1443.75H1034Z" fill="#521B41"/>
<path d="M1158.33 1490.3C1158.33 1491.37 1158.12 1492.38 1157.7 1493.31C1157.31 1494.25 1156.77 1495.07 1156.06 1495.77C1155.39 1496.45 1154.58 1497 1153.64 1497.41C1152.7 1497.8 1151.7 1498 1150.63 1498H1129.19V1514.8H1121.53V1456.4H1129.19V1463.43C1129.27 1462.44 1129.53 1461.53 1129.97 1460.7C1130.41 1459.84 1130.97 1459.09 1131.65 1458.47C1132.33 1457.82 1133.11 1457.31 1133.99 1456.95C1134.9 1456.58 1135.87 1456.4 1136.88 1456.4H1150.63C1151.7 1456.4 1152.7 1456.61 1153.64 1457.02C1154.58 1457.41 1155.39 1457.96 1156.06 1458.66C1156.77 1459.34 1157.31 1460.15 1157.7 1461.09C1158.12 1462.02 1158.33 1463.03 1158.33 1464.09V1490.3ZM1150.63 1490.3V1464.09H1129.19V1490.3H1150.63ZM1207.12 1490.3C1207.12 1491.37 1206.91 1492.38 1206.49 1493.31C1206.1 1494.25 1205.55 1495.07 1204.85 1495.77C1204.17 1496.45 1203.37 1497 1202.43 1497.41C1201.52 1497.8 1200.53 1498 1199.46 1498H1178.8C1177.76 1498 1176.77 1497.8 1175.83 1497.41C1174.89 1497 1174.07 1496.45 1173.37 1495.77C1172.69 1495.07 1172.14 1494.25 1171.73 1493.31C1171.34 1492.38 1171.14 1491.37 1171.14 1490.3V1464.09C1171.14 1463.03 1171.34 1462.02 1171.73 1461.09C1172.14 1460.15 1172.69 1459.34 1173.37 1458.66C1174.07 1457.96 1174.89 1457.41 1175.83 1457.02C1176.77 1456.61 1177.76 1456.4 1178.8 1456.4H1199.46C1200.53 1456.4 1201.52 1456.61 1202.43 1457.02C1203.37 1457.41 1204.17 1457.96 1204.85 1458.66C1205.55 1459.34 1206.1 1460.15 1206.49 1461.09C1206.91 1462.02 1207.12 1463.03 1207.12 1464.09V1490.3ZM1178.8 1464.09V1490.3H1199.46V1464.09H1178.8ZM1227.62 1464.09V1498H1219.97V1456.4H1227.62V1463.74C1227.68 1462.73 1227.91 1461.78 1228.33 1460.89C1228.74 1459.98 1229.29 1459.2 1229.97 1458.55C1230.67 1457.87 1231.48 1457.35 1232.39 1456.98C1233.3 1456.59 1234.28 1456.4 1235.32 1456.4H1243.48C1244.55 1456.4 1245.54 1456.61 1246.45 1457.02C1247.39 1457.41 1248.21 1457.96 1248.91 1458.66C1249.62 1459.34 1250.16 1460.15 1250.55 1461.09C1250.97 1462.02 1251.18 1463.03 1251.18 1464.09V1471.12H1243.48V1464.09H1227.62ZM1258.33 1456.4H1268.48V1443.59H1276.18V1456.4H1289.85V1464.09H1276.18V1490.3H1289.85V1498H1276.18C1275.14 1498 1274.15 1497.8 1273.21 1497.41C1272.27 1497 1271.45 1496.45 1270.75 1495.77C1270.05 1495.07 1269.49 1494.25 1269.07 1493.31C1268.68 1492.38 1268.48 1491.37 1268.48 1490.3V1464.09H1258.33V1456.4ZM1318.13 1448.08V1456.4H1331.8V1464.09H1318.13V1498H1310.44V1464.09H1300.28V1456.4H1310.44V1448.08C1310.44 1447.01 1310.63 1446.02 1311.02 1445.11C1311.44 1444.17 1312 1443.35 1312.7 1442.65C1313.41 1441.95 1314.23 1441.4 1315.16 1441.01C1316.1 1440.59 1317.09 1440.38 1318.13 1440.38H1331.8V1448.08H1318.13ZM1378.21 1490.3C1378.21 1491.37 1378 1492.38 1377.59 1493.31C1377.2 1494.25 1376.65 1495.07 1375.95 1495.77C1375.27 1496.45 1374.46 1497 1373.52 1497.41C1372.61 1497.8 1371.62 1498 1370.55 1498H1349.89C1348.85 1498 1347.86 1497.8 1346.92 1497.41C1345.98 1497 1345.16 1496.45 1344.46 1495.77C1343.78 1495.07 1343.24 1494.25 1342.82 1493.31C1342.43 1492.38 1342.23 1491.37 1342.23 1490.3V1464.09C1342.23 1463.03 1342.43 1462.02 1342.82 1461.09C1343.24 1460.15 1343.78 1459.34 1344.46 1458.66C1345.16 1457.96 1345.98 1457.41 1346.92 1457.02C1347.86 1456.61 1348.85 1456.4 1349.89 1456.4H1370.55C1371.62 1456.4 1372.61 1456.61 1373.52 1457.02C1374.46 1457.41 1375.27 1457.96 1375.95 1458.66C1376.65 1459.34 1377.2 1460.15 1377.59 1461.09C1378 1462.02 1378.21 1463.03 1378.21 1464.09V1490.3ZM1349.89 1464.09V1490.3H1370.55V1464.09H1349.89ZM1398.72 1440.38V1498H1391.06V1440.38H1398.72ZM1419.62 1456.4V1498H1411.92V1456.4H1419.62ZM1411.53 1440.38H1420.01V1448.39H1411.53V1440.38ZM1468.84 1490.3C1468.84 1491.37 1468.63 1492.38 1468.21 1493.31C1467.82 1494.25 1467.27 1495.07 1466.57 1495.77C1465.89 1496.45 1465.09 1497 1464.15 1497.41C1463.24 1497.8 1462.25 1498 1461.18 1498H1440.52C1439.47 1498 1438.48 1497.8 1437.55 1497.41C1436.61 1497 1435.79 1496.45 1435.09 1495.77C1434.41 1495.07 1433.86 1494.25 1433.45 1493.31C1433.05 1492.38 1432.86 1491.37 1432.86 1490.3V1464.09C1432.86 1463.03 1433.05 1462.02 1433.45 1461.09C1433.86 1460.15 1434.41 1459.34 1435.09 1458.66C1435.79 1457.96 1436.61 1457.41 1437.55 1457.02C1438.48 1456.61 1439.47 1456.4 1440.52 1456.4H1461.18C1462.25 1456.4 1463.24 1456.61 1464.15 1457.02C1465.09 1457.41 1465.89 1457.96 1466.57 1458.66C1467.27 1459.34 1467.82 1460.15 1468.21 1461.09C1468.63 1462.02 1468.84 1463.03 1468.84 1464.09V1490.3ZM1440.52 1464.09V1490.3H1461.18V1464.09H1440.52Z" fill="#C05621"/>
<path d="M1070.75 862.031C1064.12 862.041 1057.66 864.118 1052.25 867.978C1046.84 871.838 1042.74 877.293 1040.52 883.594H1020.88C1015.9 883.583 1010.99 882.409 1006.54 880.164C1002.09 877.919 998.219 874.665 995.225 870.656L974.224 842.409C980.29 838.426 984.84 832.489 987.137 825.565C989.433 818.64 989.339 811.136 986.87 804.273C984.401 797.409 979.703 791.59 973.54 787.762C967.377 783.934 960.111 782.323 952.924 783.189C945.738 784.056 939.053 787.35 933.958 792.536C928.863 797.721 925.657 804.493 924.862 811.75C924.066 819.008 925.729 826.323 929.578 832.506C933.427 838.689 939.237 843.376 946.063 845.805V914.194C938.932 916.738 932.922 921.742 929.095 928.323C925.268 934.904 923.87 942.638 925.149 950.158C926.428 957.678 930.301 964.499 936.084 969.417C941.867 974.335 949.187 977.032 956.75 977.032C964.313 977.032 971.633 974.335 977.416 969.417C983.199 964.499 987.072 957.678 988.351 950.158C989.63 942.638 988.232 934.904 984.405 928.323C980.578 921.742 974.568 916.738 967.438 914.194V869.219L978.125 883.594C983.115 890.275 989.573 895.699 996.99 899.44C1004.41 903.181 1012.58 905.137 1020.88 905.156H1040.52C1042.48 910.747 1045.93 915.686 1050.48 919.435C1055.04 923.184 1060.52 925.597 1066.35 926.412C1072.17 927.227 1078.1 926.411 1083.49 924.054C1088.89 921.697 1093.54 917.89 1096.93 913.048C1100.32 908.207 1102.33 902.517 1102.74 896.601C1103.14 890.686 1101.93 884.772 1099.22 879.506C1096.52 874.24 1092.44 869.825 1087.42 866.743C1082.39 863.661 1076.63 862.031 1070.75 862.031ZM956.75 804.531C958.864 804.531 960.93 805.163 962.688 806.348C964.445 807.533 965.815 809.217 966.624 811.187C967.433 813.157 967.645 815.324 967.232 817.416C966.82 819.507 965.802 821.428 964.307 822.936C962.813 824.444 960.908 825.47 958.835 825.886C956.762 826.302 954.613 826.089 952.66 825.273C950.707 824.457 949.038 823.075 947.864 821.302C946.689 819.529 946.063 817.445 946.063 815.312C946.063 812.453 947.189 809.711 949.193 807.689C951.197 805.667 953.916 804.531 956.75 804.531ZM956.75 955.469C954.636 955.469 952.57 954.836 950.812 953.652C949.055 952.467 947.685 950.783 946.876 948.813C946.067 946.843 945.856 944.675 946.268 942.584C946.68 940.493 947.698 938.572 949.193 937.064C950.688 935.556 952.592 934.529 954.665 934.113C956.738 933.697 958.887 933.911 960.84 934.727C962.793 935.543 964.462 936.925 965.636 938.698C966.811 940.471 967.438 942.555 967.438 944.687C967.438 947.547 966.312 950.289 964.307 952.311C962.303 954.333 959.585 955.469 956.75 955.469ZM1070.75 905.156C1068.64 905.156 1066.57 904.524 1064.81 903.339C1063.05 902.155 1061.69 900.471 1060.88 898.501C1060.07 896.531 1059.86 894.363 1060.27 892.272C1060.68 890.18 1061.7 888.259 1063.19 886.751C1064.69 885.244 1066.59 884.217 1068.67 883.801C1070.74 883.385 1072.89 883.598 1074.84 884.414C1076.79 885.23 1078.46 886.612 1079.64 888.385C1080.81 890.158 1081.44 892.243 1081.44 894.375C1081.44 897.234 1080.31 899.977 1078.31 901.998C1076.3 904.02 1073.58 905.156 1070.75 905.156Z" fill="#2D3748"/>
<path d="M950.18 945.292V904.875C950.18 903.267 950.793 901.725 951.885 900.588C952.976 899.451 954.456 898.812 956 898.812C957.544 898.812 959.024 899.451 960.115 900.588C961.207 901.725 961.82 903.267 961.82 904.875V945.292C961.82 946.9 961.207 948.442 960.115 949.578C959.024 950.715 957.544 951.354 956 951.354C954.456 951.354 952.976 950.715 951.885 949.578C950.793 948.442 950.18 946.9 950.18 945.292ZM982.457 903.865C981.164 903.036 979.612 902.765 978.131 903.111C976.651 903.457 975.358 904.392 974.529 905.717C973.701 907.041 973.401 908.65 973.695 910.201C973.99 911.752 974.853 913.122 976.103 914.019C986.754 921.229 992.86 932.661 992.86 945.292C992.86 955.475 988.977 965.241 982.064 972.442C975.151 979.642 965.776 983.687 956 983.687C946.224 983.687 936.849 979.642 929.936 972.442C923.023 965.241 919.14 955.475 919.14 945.292C919.14 932.661 925.246 921.229 935.897 913.994C937.08 913.07 937.881 911.712 938.138 910.195C938.395 908.678 938.087 907.116 937.279 905.827C936.47 904.537 935.22 903.617 933.783 903.252C932.347 902.888 930.831 903.107 929.543 903.865C915.532 913.352 907.5 928.463 907.5 945.292C907.5 958.691 912.61 971.541 921.705 981.015C930.801 990.49 943.137 995.812 956 995.812C968.863 995.812 981.199 990.49 990.295 981.015C999.39 971.541 1004.5 958.691 1004.5 945.292C1004.5 928.463 996.468 913.352 982.457 903.865Z" fill="#C05621"/>
<path d="M496 1527.5L1505 1536" stroke="#1A365D" stroke-width="8"/>
<path d="M496 1547.5L1505 1556" stroke="#1A365D" stroke-width="8"/>
</svg>
