<svg width="2000" height="2000" viewBox="0 0 2000 2000" fill="none" xmlns="http://www.w3.org/2000/svg">
<path d="M0 0H2000V2000H0V0Z" fill="#252836" fill-opacity="0.35"/>
<rect x="177.5" y="216.5" width="1559" height="1559" rx="779.5" fill="url(#paint0_linear_941_178)" stroke="black"/>
<path d="M300.675 1102H228.488V898.364H301.272C321.755 898.364 339.388 902.44 354.17 910.594C368.952 918.681 380.32 930.314 388.275 945.494C396.296 960.674 400.306 978.837 400.306 999.983C400.306 1021.2 396.296 1039.42 388.275 1054.67C380.32 1069.92 368.886 1081.62 353.971 1089.77C339.122 1097.92 321.357 1102 300.675 1102ZM271.542 1065.11H298.886C311.613 1065.11 322.318 1062.86 331.002 1058.35C339.752 1053.78 346.315 1046.72 350.69 1037.17C355.131 1027.56 357.352 1015.16 357.352 999.983C357.352 984.936 355.131 972.639 350.69 963.094C346.315 953.548 339.785 946.522 331.102 942.014C322.418 937.507 311.712 935.253 298.985 935.253H271.542V1065.11ZM501.006 1104.98C485.295 1104.98 471.773 1101.8 460.438 1095.44C449.169 1089.01 440.485 1079.93 434.386 1068.19C428.288 1056.39 425.239 1042.44 425.239 1026.33C425.239 1010.62 428.288 996.834 434.386 984.969C440.485 973.103 449.069 963.856 460.139 957.227C471.276 950.598 484.334 947.284 499.315 947.284C509.391 947.284 518.771 948.908 527.455 952.156C536.205 955.338 543.828 960.144 550.324 966.574C556.886 973.004 561.991 981.091 565.636 990.835C569.282 1000.51 571.105 1011.85 571.105 1024.84V1036.47H442.142V1010.22H531.233C531.233 1004.13 529.907 998.723 527.256 994.017C524.604 989.311 520.925 985.632 516.219 982.98C511.579 980.262 506.176 978.903 500.011 978.903C493.581 978.903 487.881 980.395 482.909 983.378C478.004 986.295 474.159 990.239 471.375 995.21C468.591 1000.12 467.166 1005.58 467.099 1011.62V1036.57C467.099 1044.13 468.491 1050.66 471.276 1056.16C474.126 1061.66 478.136 1065.91 483.307 1068.89C488.477 1071.87 494.609 1073.36 501.702 1073.36C506.408 1073.36 510.717 1072.7 514.628 1071.38C518.539 1070.05 521.886 1068.06 524.67 1065.41C527.455 1062.76 529.576 1059.51 531.034 1055.66L570.21 1058.25C568.222 1067.66 564.145 1075.88 557.98 1082.91C551.882 1089.87 543.993 1095.3 534.315 1099.22C524.704 1103.06 513.6 1104.98 501.006 1104.98ZM737.032 949.273L683.637 1102H635.91L582.515 949.273H627.259L658.978 1058.55H660.569L692.188 949.273H737.032ZM1155.71 1102H1083.53V898.364H1156.31C1176.79 898.364 1194.43 902.44 1209.21 910.594C1223.99 918.681 1235.36 930.314 1243.31 945.494C1251.33 960.674 1255.35 978.837 1255.35 999.983C1255.35 1021.2 1251.33 1039.42 1243.31 1054.67C1235.36 1069.92 1223.92 1081.62 1209.01 1089.77C1194.16 1097.92 1176.4 1102 1155.71 1102ZM1126.58 1065.11H1153.92C1166.65 1065.11 1177.36 1062.86 1186.04 1058.35C1194.79 1053.78 1201.35 1046.72 1205.73 1037.17C1210.17 1027.56 1212.39 1015.16 1212.39 999.983C1212.39 984.936 1210.17 972.639 1205.73 963.094C1201.35 953.548 1194.82 946.522 1186.14 942.014C1177.46 937.507 1166.75 935.253 1154.02 935.253H1126.58V1065.11ZM1329.99 1104.88C1320.25 1104.88 1311.57 1103.19 1303.94 1099.81C1296.32 1096.37 1290.29 1091.29 1285.85 1084.6C1281.47 1077.84 1279.28 1069.42 1279.28 1059.34C1279.28 1050.86 1280.84 1043.73 1283.96 1037.97C1287.07 1032.2 1291.31 1027.56 1296.68 1024.05C1302.05 1020.53 1308.15 1017.88 1314.98 1016.09C1321.87 1014.3 1329.1 1013.04 1336.66 1012.31C1345.54 1011.38 1352.7 1010.52 1358.13 1009.73C1363.57 1008.87 1367.51 1007.61 1369.97 1005.95C1372.42 1004.29 1373.64 1001.84 1373.64 998.591V997.994C1373.64 991.697 1371.66 986.825 1367.68 983.378C1363.77 979.931 1358.2 978.207 1350.97 978.207C1343.35 978.207 1337.29 979.898 1332.78 983.278C1328.27 986.593 1325.29 990.769 1323.83 995.807L1284.65 992.625C1286.64 983.345 1290.55 975.324 1296.39 968.562C1302.22 961.735 1309.74 956.498 1318.96 952.852C1328.24 949.14 1338.98 947.284 1351.17 947.284C1359.66 947.284 1367.78 948.278 1375.53 950.267C1383.36 952.256 1390.28 955.338 1396.31 959.514C1402.41 963.69 1407.22 969.06 1410.73 975.622C1414.25 982.118 1416 989.907 1416 998.989V1102H1375.83V1080.82H1374.64C1372.19 1085.59 1368.9 1089.8 1364.79 1093.45C1360.68 1097.03 1355.75 1099.85 1349.98 1101.9C1344.21 1103.89 1337.55 1104.88 1329.99 1104.88ZM1342.12 1075.65C1348.36 1075.65 1353.86 1074.42 1358.63 1071.97C1363.4 1069.45 1367.15 1066.07 1369.87 1061.83C1372.58 1057.59 1373.94 1052.78 1373.94 1047.41V1031.2C1372.62 1032.07 1370.79 1032.86 1368.47 1033.59C1366.22 1034.25 1363.67 1034.88 1360.82 1035.48C1357.97 1036.01 1355.12 1036.51 1352.27 1036.97C1349.42 1037.37 1346.83 1037.73 1344.51 1038.07C1339.54 1038.79 1335.2 1039.95 1331.49 1041.55C1327.77 1043.14 1324.89 1045.29 1322.83 1048.01C1320.78 1050.66 1319.75 1053.97 1319.75 1057.95C1319.75 1063.72 1321.84 1068.13 1326.02 1071.18C1330.26 1074.16 1335.63 1075.65 1342.12 1075.65ZM1530.1 949.273V981.091H1438.13V949.273H1530.1ZM1459.01 912.682H1501.36V1055.07C1501.36 1058.98 1501.96 1062.03 1503.15 1064.22C1504.35 1066.34 1506 1067.83 1508.13 1068.69C1510.31 1069.55 1512.83 1069.98 1515.68 1069.98C1517.67 1069.98 1519.66 1069.82 1521.65 1069.49C1523.64 1069.09 1525.16 1068.79 1526.22 1068.59L1532.88 1100.11C1530.76 1100.77 1527.78 1101.54 1523.94 1102.4C1520.09 1103.33 1515.42 1103.89 1509.92 1104.09C1499.71 1104.49 1490.76 1103.13 1483.07 1100.01C1475.45 1096.9 1469.51 1092.06 1465.27 1085.49C1461.03 1078.93 1458.94 1070.65 1459.01 1060.64V912.682ZM1601.24 1104.88C1591.5 1104.88 1582.82 1103.19 1575.19 1099.81C1567.57 1096.37 1561.54 1091.29 1557.1 1084.6C1552.72 1077.84 1550.53 1069.42 1550.53 1059.34C1550.53 1050.86 1552.09 1043.73 1555.21 1037.97C1558.32 1032.2 1562.56 1027.56 1567.93 1024.05C1573.3 1020.53 1579.4 1017.88 1586.23 1016.09C1593.12 1014.3 1600.35 1013.04 1607.91 1012.31C1616.79 1011.38 1623.95 1010.52 1629.38 1009.73C1634.82 1008.87 1638.76 1007.61 1641.22 1005.95C1643.67 1004.29 1644.89 1001.84 1644.89 998.591V997.994C1644.89 991.697 1642.91 986.825 1638.93 983.378C1635.02 979.931 1629.45 978.207 1622.22 978.207C1614.6 978.207 1608.54 979.898 1604.03 983.278C1599.52 986.593 1596.54 990.769 1595.08 995.807L1555.9 992.625C1557.89 983.345 1561.8 975.324 1567.64 968.562C1573.47 961.735 1580.99 956.498 1590.21 952.852C1599.49 949.14 1610.23 947.284 1622.42 947.284C1630.91 947.284 1639.03 948.278 1646.78 950.267C1654.61 952.256 1661.53 955.338 1667.56 959.514C1673.66 963.69 1678.47 969.06 1681.98 975.622C1685.5 982.118 1687.25 989.907 1687.25 998.989V1102H1647.08V1080.82H1645.89C1643.44 1085.59 1640.15 1089.8 1636.04 1093.45C1631.93 1097.03 1627 1099.85 1621.23 1101.9C1615.46 1103.89 1608.8 1104.88 1601.24 1104.88ZM1613.37 1075.65C1619.61 1075.65 1625.11 1074.42 1629.88 1071.97C1634.65 1069.45 1638.4 1066.07 1641.12 1061.83C1643.83 1057.59 1645.19 1052.78 1645.19 1047.41V1031.2C1643.87 1032.07 1642.04 1032.86 1639.72 1033.59C1637.47 1034.25 1634.92 1034.88 1632.07 1035.48C1629.22 1036.01 1626.37 1036.51 1623.52 1036.97C1620.67 1037.37 1618.08 1037.73 1615.76 1038.07C1610.79 1038.79 1606.45 1039.95 1602.74 1041.55C1599.02 1043.14 1596.14 1045.29 1594.08 1048.01C1592.03 1050.66 1591 1053.97 1591 1057.95C1591 1063.72 1593.09 1068.13 1597.27 1071.18C1601.51 1074.16 1606.88 1075.65 1613.37 1075.65Z" fill="#1A365D"/>
<path d="M582.479 1318C574.612 1318 567.479 1316.2 561.079 1312.6C554.679 1308.87 549.546 1303.93 545.679 1297.8C541.946 1291.53 540.079 1284.47 540.079 1276.6C540.079 1270.73 541.346 1265.27 543.879 1260.2C546.546 1255 550.079 1250.53 554.479 1246.8C550.212 1243.2 546.812 1238.93 544.279 1234C541.879 1229.07 540.679 1223.87 540.679 1218.4C540.679 1210.67 542.546 1203.8 546.279 1197.8C550.012 1191.67 555.012 1186.87 561.279 1183.4C567.546 1179.8 574.479 1178 582.079 1178H641.079V1206.2L587.279 1206C584.746 1206 582.412 1206.6 580.279 1207.8C578.146 1209 576.412 1210.6 575.079 1212.6C573.879 1214.6 573.279 1216.93 573.279 1219.6C573.279 1222.13 573.879 1224.47 575.079 1226.6C576.412 1228.6 578.146 1230.2 580.279 1231.4C582.412 1232.47 584.746 1233 587.279 1233H634.279V1261H588.279C585.479 1261 582.946 1261.67 580.679 1263C578.412 1264.33 576.612 1266.07 575.279 1268.2C573.946 1270.33 573.279 1272.8 573.279 1275.6C573.279 1278.27 573.946 1280.73 575.279 1283C576.612 1285.13 578.412 1286.8 580.679 1288C582.946 1289.2 585.479 1289.8 588.279 1289.8H641.079V1318H582.479ZM660.495 1318V1259C660.495 1250.47 662.561 1242.73 666.695 1235.8C670.828 1228.87 676.695 1223.33 684.295 1219.2C692.028 1215.07 701.161 1213 711.695 1213C722.361 1213 731.428 1215.07 738.895 1219.2C746.495 1223.33 752.295 1228.87 756.295 1235.8C760.295 1242.73 762.295 1250.47 762.295 1259V1318H731.295V1259.8C731.295 1256.2 730.428 1252.93 728.695 1250C726.961 1246.93 724.561 1244.53 721.495 1242.8C718.561 1240.93 715.228 1240 711.495 1240C707.628 1240 704.161 1240.93 701.095 1242.8C698.161 1244.53 695.828 1246.93 694.095 1250C692.361 1252.93 691.495 1256.2 691.495 1259.8V1318H660.495ZM801.095 1358.6V1332H852.295C854.295 1332 855.961 1331.33 857.295 1330C858.628 1328.8 859.295 1327.27 859.295 1325.4V1302.8H858.695C856.028 1305.87 853.161 1308.47 850.095 1310.6C847.161 1312.73 843.828 1314.33 840.095 1315.4C836.495 1316.47 832.428 1317 827.895 1317C818.828 1317 810.695 1314.87 803.495 1310.6C796.428 1306.2 790.828 1300.13 786.695 1292.4C782.695 1284.67 780.695 1275.87 780.695 1266C780.695 1256.27 782.761 1247.4 786.895 1239.4C791.161 1231.4 797.361 1225 805.495 1220.2C813.628 1215.4 823.561 1213 835.295 1213C846.495 1213 856.161 1215.33 864.295 1220C872.561 1224.53 878.961 1231 883.495 1239.4C888.028 1247.67 890.295 1257.4 890.295 1268.6V1328.6C890.295 1337.8 887.561 1345.07 882.095 1350.4C876.761 1355.87 869.361 1358.6 859.895 1358.6H801.095ZM835.495 1291C840.295 1291 844.428 1289.93 847.895 1287.8C851.361 1285.53 854.028 1282.53 855.895 1278.8C857.761 1275.07 858.695 1270.93 858.695 1266.4C858.695 1261.6 857.761 1257.2 855.895 1253.2C854.028 1249.2 851.361 1246.07 847.895 1243.8C844.428 1241.4 840.295 1240.2 835.495 1240.2C830.828 1240.2 826.695 1241.33 823.095 1243.6C819.628 1245.87 816.961 1248.93 815.095 1252.8C813.228 1256.67 812.295 1261 812.295 1265.8C812.295 1270.47 813.228 1274.73 815.095 1278.6C816.961 1282.33 819.628 1285.33 823.095 1287.6C826.695 1289.87 830.828 1291 835.495 1291ZM912.643 1318V1215.4H943.843V1318H912.643ZM928.243 1203.8C923.31 1203.8 919.043 1202 915.443 1198.4C911.843 1194.8 910.043 1190.53 910.043 1185.6C910.043 1180.67 911.843 1176.4 915.443 1172.8C919.043 1169.07 923.31 1167.2 928.243 1167.2C933.176 1167.2 937.443 1169.07 941.043 1172.8C944.643 1176.4 946.443 1180.67 946.443 1185.6C946.443 1190.53 944.643 1194.8 941.043 1198.4C937.443 1202 933.176 1203.8 928.243 1203.8ZM966.549 1318V1259C966.549 1250.47 968.616 1242.73 972.749 1235.8C976.883 1228.87 982.749 1223.33 990.349 1219.2C998.083 1215.07 1007.22 1213 1017.75 1213C1028.42 1213 1037.48 1215.07 1044.95 1219.2C1052.55 1223.33 1058.35 1228.87 1062.35 1235.8C1066.35 1242.73 1068.35 1250.47 1068.35 1259V1318H1037.35V1259.8C1037.35 1256.2 1036.48 1252.93 1034.75 1250C1033.02 1246.93 1030.62 1244.53 1027.55 1242.8C1024.62 1240.93 1021.28 1240 1017.55 1240C1013.68 1240 1010.22 1240.93 1007.15 1242.8C1004.22 1244.53 1001.88 1246.93 1000.15 1250C998.416 1252.93 997.549 1256.2 997.549 1259.8V1318H966.549ZM1145.15 1318C1133.55 1318 1123.35 1315.87 1114.55 1311.6C1105.75 1307.2 1098.88 1301.2 1093.95 1293.6C1089.15 1285.87 1086.75 1276.93 1086.75 1266.8C1086.75 1255.6 1089.08 1246 1093.75 1238C1098.42 1230 1104.62 1223.87 1112.35 1219.6C1120.22 1215.2 1128.88 1213 1138.35 1213C1149.15 1213 1158.15 1215.27 1165.35 1219.8C1172.68 1224.33 1178.22 1230.53 1181.95 1238.4C1185.68 1246.13 1187.55 1255 1187.55 1265C1187.55 1266.73 1187.42 1268.8 1187.15 1271.2C1187.02 1273.47 1186.82 1275.27 1186.55 1276.6H1119.35C1120.15 1280.07 1121.68 1283 1123.95 1285.4C1126.22 1287.8 1129.08 1289.6 1132.55 1290.8C1136.02 1291.87 1139.88 1292.4 1144.15 1292.4H1175.55V1318H1145.15ZM1118.55 1257.2H1157.55C1157.28 1255.07 1156.88 1253 1156.35 1251C1155.82 1249 1154.95 1247.27 1153.75 1245.8C1152.68 1244.2 1151.42 1242.87 1149.95 1241.8C1148.48 1240.6 1146.75 1239.67 1144.75 1239C1142.88 1238.33 1140.75 1238 1138.35 1238C1135.28 1238 1132.55 1238.53 1130.15 1239.6C1127.75 1240.67 1125.75 1242.13 1124.15 1244C1122.55 1245.73 1121.28 1247.8 1120.35 1250.2C1119.55 1252.47 1118.95 1254.8 1118.55 1257.2ZM1259.21 1318C1247.61 1318 1237.41 1315.87 1228.61 1311.6C1219.81 1307.2 1212.95 1301.2 1208.01 1293.6C1203.21 1285.87 1200.81 1276.93 1200.81 1266.8C1200.81 1255.6 1203.15 1246 1207.81 1238C1212.48 1230 1218.68 1223.87 1226.41 1219.6C1234.28 1215.2 1242.95 1213 1252.41 1213C1263.21 1213 1272.21 1215.27 1279.41 1219.8C1286.75 1224.33 1292.28 1230.53 1296.01 1238.4C1299.75 1246.13 1301.61 1255 1301.61 1265C1301.61 1266.73 1301.48 1268.8 1301.21 1271.2C1301.08 1273.47 1300.88 1275.27 1300.61 1276.6H1233.41C1234.21 1280.07 1235.75 1283 1238.01 1285.4C1240.28 1287.8 1243.15 1289.6 1246.61 1290.8C1250.08 1291.87 1253.95 1292.4 1258.21 1292.4H1289.61V1318H1259.21ZM1232.61 1257.2H1271.61C1271.35 1255.07 1270.95 1253 1270.41 1251C1269.88 1249 1269.01 1247.27 1267.81 1245.8C1266.75 1244.2 1265.48 1242.87 1264.01 1241.8C1262.55 1240.6 1260.81 1239.67 1258.81 1239C1256.95 1238.33 1254.81 1238 1252.41 1238C1249.35 1238 1246.61 1238.53 1244.21 1239.6C1241.81 1240.67 1239.81 1242.13 1238.21 1244C1236.61 1245.73 1235.35 1247.8 1234.41 1250.2C1233.61 1252.47 1233.01 1254.8 1232.61 1257.2ZM1318.87 1318V1245.6C1318.87 1236.27 1321.54 1228.93 1326.87 1223.6C1332.21 1218.27 1339.61 1215.6 1349.07 1215.6H1378.87V1240.8H1356.67C1354.81 1240.8 1353.21 1241.47 1351.87 1242.8C1350.54 1244 1349.87 1245.6 1349.87 1247.6V1318H1318.87Z" fill="#D7DDEA"/>
<path d="M899.08 997.187V890.938C899.08 886.711 900.705 882.657 903.596 879.668C906.488 876.679 910.41 875 914.5 875C918.59 875 922.512 876.679 925.404 879.668C928.295 882.657 929.92 886.711 929.92 890.938V997.187C929.92 1001.41 928.295 1005.47 925.404 1008.46C922.512 1011.45 918.59 1013.12 914.5 1013.12C910.41 1013.12 906.488 1011.45 903.596 1008.46C900.705 1005.47 899.08 1001.41 899.08 997.187ZM984.597 888.281C981.173 886.102 977.061 885.392 973.137 886.301C969.213 887.211 965.789 889.669 963.593 893.15C961.398 896.632 960.605 900.863 961.384 904.94C962.163 909.017 964.452 912.619 967.763 914.977C995.982 933.929 1012.16 963.984 1012.16 997.187C1012.16 1023.96 1001.87 1049.63 983.556 1068.56C965.241 1087.49 940.401 1098.12 914.5 1098.12C888.599 1098.12 863.759 1087.49 845.444 1068.56C827.129 1049.63 816.84 1023.96 816.84 997.187C816.84 963.984 833.018 933.929 861.237 914.91C864.372 912.482 866.495 908.911 867.175 904.923C867.855 900.935 867.041 896.829 864.898 893.44C862.755 890.05 859.444 887.63 855.637 886.672C851.831 885.714 847.814 886.289 844.403 888.281C807.28 913.223 786 952.948 786 997.187C786 1032.41 799.538 1066.19 823.637 1091.1C847.735 1116.01 880.42 1130 914.5 1130C948.58 1130 981.265 1116.01 1005.36 1091.1C1029.46 1066.19 1043 1032.41 1043 997.187C1043 952.948 1021.72 913.223 984.597 888.281Z" fill="#1E2123"/>
<defs>
<linearGradient id="paint0_linear_941_178" x1="957" y1="216" x2="957" y2="1776" gradientUnits="userSpaceOnUse">
<stop stop-color="#E74D4D"/>
<stop offset="0.5625" stop-color="#E74D4D" stop-opacity="0.645833"/>
<stop offset="1" stop-color="#E74D4D" stop-opacity="0"/>
</linearGradient>
</defs>
</svg>
