<svg width="2000" height="2000" viewBox="0 0 2000 2000" fill="none" xmlns="http://www.w3.org/2000/svg">
<path d="M0 0H2000V2000H0V0Z" fill="#D9D9D9"/>
<path d="M957.253 1266H699.441V538.727H959.384C1032.54 538.727 1095.51 553.287 1148.3 582.406C1201.1 611.289 1241.7 652.837 1270.11 707.051C1298.75 761.265 1313.08 826.133 1313.08 901.653C1313.08 977.411 1298.75 1042.52 1270.11 1096.97C1241.7 1151.42 1200.86 1193.2 1147.59 1222.32C1094.56 1251.44 1031.12 1266 957.253 1266ZM853.205 1134.25H950.861C996.316 1134.25 1034.55 1126.2 1065.56 1110.11C1096.81 1093.77 1120.25 1068.56 1135.88 1034.47C1151.74 1000.14 1159.67 955.867 1159.67 901.653C1159.67 847.913 1151.74 803.997 1135.88 769.906C1120.25 735.815 1096.93 710.721 1065.92 694.622C1034.9 678.524 996.671 670.474 951.216 670.474H853.205V1134.25Z" fill="#521B41"/>
<path d="M580.806 1337.38C580.238 1331.65 577.799 1327.2 573.491 1324.03C569.182 1320.85 563.335 1319.27 555.948 1319.27C550.929 1319.27 546.692 1319.98 543.235 1321.4C539.779 1322.77 537.127 1324.69 535.281 1327.15C533.481 1329.61 532.582 1332.41 532.582 1335.53C532.487 1338.14 533.031 1340.41 534.215 1342.35C535.446 1344.29 537.127 1345.97 539.258 1347.39C541.388 1348.77 543.851 1349.97 546.644 1351.01C549.438 1352.01 552.421 1352.86 555.593 1353.57L568.661 1356.7C575.006 1358.12 580.83 1360.01 586.133 1362.38C591.436 1364.75 596.029 1367.66 599.911 1371.11C603.794 1374.57 606.8 1378.64 608.931 1383.33C611.109 1388.02 612.222 1393.39 612.269 1399.45C612.222 1408.35 609.949 1416.07 605.451 1422.61C601 1429.09 594.561 1434.13 586.133 1437.73C577.752 1441.28 567.643 1443.06 555.806 1443.06C544.064 1443.06 533.836 1441.26 525.124 1437.66C516.46 1434.06 509.689 1428.74 504.812 1421.68C499.982 1414.58 497.449 1405.8 497.212 1395.33H526.971C527.302 1400.21 528.699 1404.28 531.161 1407.55C533.671 1410.77 537.009 1413.21 541.175 1414.86C545.389 1416.47 550.148 1417.28 555.451 1417.28C560.659 1417.28 565.181 1416.52 569.016 1415.01C572.899 1413.49 575.906 1411.38 578.036 1408.68C580.167 1405.99 581.232 1402.88 581.232 1399.38C581.232 1396.11 580.262 1393.37 578.32 1391.14C576.426 1388.92 573.633 1387.02 569.94 1385.46C566.294 1383.9 561.819 1382.48 556.516 1381.2L540.678 1377.22C528.415 1374.24 518.732 1369.57 511.63 1363.23C504.528 1356.89 501 1348.34 501.048 1337.59C501 1328.78 503.344 1321.09 508.079 1314.51C512.861 1307.93 519.419 1302.79 527.752 1299.1C536.085 1295.4 545.555 1293.56 556.161 1293.56C566.957 1293.56 576.379 1295.4 584.428 1299.1C592.525 1302.79 598.822 1307.93 603.32 1314.51C607.818 1321.09 610.138 1328.71 610.281 1337.38H580.806ZM681.676 1443.13C670.644 1443.13 661.103 1440.79 653.054 1436.1C645.052 1431.36 638.873 1424.78 634.517 1416.36C630.161 1407.88 627.983 1398.05 627.983 1386.88C627.983 1375.61 630.161 1365.76 634.517 1357.34C638.873 1348.86 645.052 1342.28 653.054 1337.59C661.103 1332.86 670.644 1330.49 681.676 1330.49C692.708 1330.49 702.225 1332.86 710.227 1337.59C718.277 1342.28 724.479 1348.86 728.835 1357.34C733.191 1365.76 735.369 1375.61 735.369 1386.88C735.369 1398.05 733.191 1407.88 728.835 1416.36C724.479 1424.78 718.277 1431.36 710.227 1436.1C702.225 1440.79 692.708 1443.13 681.676 1443.13ZM681.818 1419.69C686.837 1419.69 691.027 1418.27 694.389 1415.43C697.751 1412.54 700.284 1408.61 701.989 1403.64C703.741 1398.67 704.616 1393.01 704.616 1386.67C704.616 1380.32 703.741 1374.66 701.989 1369.69C700.284 1364.72 697.751 1360.79 694.389 1357.9C691.027 1355.02 686.837 1353.57 681.818 1353.57C676.752 1353.57 672.491 1355.02 669.034 1357.9C665.625 1360.79 663.045 1364.72 661.293 1369.69C659.588 1374.66 658.736 1380.32 658.736 1386.67C658.736 1393.01 659.588 1398.67 661.293 1403.64C663.045 1408.61 665.625 1412.54 669.034 1415.43C672.491 1418.27 676.752 1419.69 681.818 1419.69ZM813.707 1331.91V1354.64H746.378V1331.91H813.707ZM761.79 1441V1324.03C761.79 1316.12 763.329 1309.56 766.406 1304.35C769.531 1299.14 773.793 1295.24 779.19 1292.63C784.588 1290.03 790.72 1288.73 797.585 1288.73C802.225 1288.73 806.463 1289.08 810.298 1289.79C814.181 1290.5 817.069 1291.14 818.963 1291.71L813.565 1314.44C812.382 1314.06 810.914 1313.7 809.162 1313.37C807.457 1313.04 805.705 1312.88 803.906 1312.88C799.455 1312.88 796.354 1313.92 794.602 1316C792.85 1318.04 791.974 1320.9 791.974 1324.59V1441H761.79ZM890.217 1331.91V1354.64H824.521V1331.91H890.217ZM839.435 1305.77H869.691V1407.48C869.691 1410.27 870.117 1412.45 870.969 1414.01C871.822 1415.53 873.005 1416.59 874.521 1417.21C876.083 1417.82 877.882 1418.13 879.918 1418.13C881.339 1418.13 882.759 1418.01 884.18 1417.78C885.6 1417.49 886.689 1417.28 887.447 1417.14L892.205 1439.65C890.69 1440.12 888.559 1440.67 885.813 1441.28C883.067 1441.95 879.729 1442.35 875.799 1442.49C868.507 1442.78 862.115 1441.8 856.623 1439.58C851.178 1437.35 846.94 1433.9 843.91 1429.21C840.879 1424.52 839.388 1418.6 839.435 1411.45V1305.77ZM954.528 1443.13C944.585 1443.13 936.038 1441.33 928.888 1437.73C921.739 1434.13 916.223 1429.28 912.34 1423.17C908.505 1417.02 906.587 1410.08 906.587 1402.36C906.587 1396.54 907.771 1391.38 910.138 1386.88C912.553 1382.38 915.868 1378.22 920.082 1374.38C924.343 1370.55 929.267 1366.73 934.854 1362.95L960.636 1345.4C964.424 1342.94 967.288 1340.34 969.229 1337.59C971.218 1334.84 972.212 1331.62 972.212 1327.93C972.212 1324.81 970.887 1321.85 968.235 1319.05C965.631 1316.26 962.032 1314.86 957.44 1314.86C954.362 1314.86 951.639 1315.6 949.272 1317.07C946.952 1318.49 945.129 1320.36 943.803 1322.68C942.525 1325 941.886 1327.46 941.886 1330.06C941.886 1333.23 942.762 1336.45 944.513 1339.72C946.313 1342.99 948.633 1346.37 951.474 1349.88C954.362 1353.38 957.44 1357.1 960.707 1361.03L1028.96 1441H1001.12L944.442 1376.09C940.228 1371.16 936.156 1366.31 932.227 1361.53C928.344 1356.74 925.148 1351.77 922.638 1346.61C920.176 1341.4 918.945 1335.77 918.945 1329.71C918.945 1322.84 920.531 1316.71 923.704 1311.31C926.876 1305.87 931.303 1301.58 936.985 1298.46C942.714 1295.33 949.414 1293.77 957.085 1293.77C964.755 1293.77 971.336 1295.29 976.829 1298.32C982.321 1301.35 986.559 1305.37 989.542 1310.39C992.525 1315.41 994.016 1320.88 994.016 1326.8C994.016 1333.66 992.312 1339.82 988.903 1345.26C985.494 1350.66 980.759 1355.56 974.698 1359.96L945.295 1381.48C940.465 1384.99 937.009 1388.54 934.925 1392.14C932.842 1395.69 931.8 1398.72 931.8 1401.23C931.8 1405.06 932.771 1408.54 934.712 1411.67C936.654 1414.79 939.376 1417.3 942.88 1419.2C946.431 1421.04 950.574 1421.97 955.309 1421.97C960.517 1421.97 965.655 1420.81 970.721 1418.49C975.787 1416.12 980.404 1412.76 984.57 1408.4C988.737 1404.04 992.051 1398.84 994.513 1392.78C996.976 1386.67 998.207 1379.9 998.207 1372.46H1020.29C1020.29 1381.65 1019.28 1389.65 1017.24 1396.47C1015.2 1403.24 1012.58 1408.97 1009.36 1413.66C1006.14 1418.3 1002.73 1422.01 999.13 1424.81C997.994 1425.61 996.905 1426.42 995.863 1427.22C994.821 1428.03 993.732 1428.83 992.596 1429.64C987.482 1434.28 981.493 1437.69 974.627 1439.86C967.809 1442.04 961.109 1443.13 954.528 1443.13ZM1094.67 1441H1043.11V1295.55H1095.1C1109.73 1295.55 1122.32 1298.46 1132.88 1304.28C1143.44 1310.06 1151.56 1318.37 1157.24 1329.21C1162.97 1340.05 1165.84 1353.03 1165.84 1368.13C1165.84 1383.28 1162.97 1396.3 1157.24 1407.19C1151.56 1418.08 1143.39 1426.44 1132.74 1432.26C1122.14 1438.09 1109.45 1441 1094.67 1441ZM1073.86 1414.65H1093.39C1102.49 1414.65 1110.13 1413.04 1116.34 1409.82C1122.59 1406.55 1127.27 1401.51 1130.4 1394.69C1133.57 1387.83 1135.16 1378.97 1135.16 1368.13C1135.16 1357.38 1133.57 1348.6 1130.4 1341.78C1127.27 1334.96 1122.61 1329.94 1116.41 1326.72C1110.2 1323.5 1102.56 1321.89 1093.47 1321.89H1073.86V1414.65ZM1219.16 1443.06C1212.2 1443.06 1206 1441.85 1200.55 1439.44C1195.11 1436.98 1190.8 1433.35 1187.62 1428.57C1184.5 1423.74 1182.94 1417.73 1182.94 1410.53C1182.94 1404.47 1184.05 1399.38 1186.27 1395.26C1188.5 1391.14 1191.53 1387.83 1195.37 1385.32C1199.2 1382.81 1203.56 1380.91 1208.43 1379.64C1213.36 1378.36 1218.52 1377.46 1223.92 1376.94C1230.26 1376.27 1235.38 1375.66 1239.26 1375.09C1243.14 1374.48 1245.96 1373.58 1247.71 1372.39C1249.46 1371.21 1250.34 1369.46 1250.34 1367.14V1366.71C1250.34 1362.21 1248.92 1358.73 1246.08 1356.27C1243.28 1353.81 1239.31 1352.58 1234.14 1352.58C1228.7 1352.58 1224.37 1353.78 1221.15 1356.2C1217.93 1358.57 1215.8 1361.55 1214.75 1365.15L1186.77 1362.88C1188.19 1356.25 1190.99 1350.52 1195.15 1345.69C1199.32 1340.81 1204.69 1337.07 1211.27 1334.47C1217.9 1331.81 1225.57 1330.49 1234.29 1330.49C1240.35 1330.49 1246.15 1331.2 1251.69 1332.62C1257.27 1334.04 1262.22 1336.24 1266.53 1339.22C1270.89 1342.21 1274.32 1346.04 1276.83 1350.73C1279.34 1355.37 1280.59 1360.93 1280.59 1367.42V1441H1251.9V1425.87H1251.05C1249.3 1429.28 1246.95 1432.29 1244.02 1434.89C1241.08 1437.45 1237.55 1439.46 1233.43 1440.93C1229.31 1442.35 1224.56 1443.06 1219.16 1443.06ZM1227.82 1422.18C1232.27 1422.18 1236.2 1421.3 1239.61 1419.55C1243.02 1417.75 1245.7 1415.34 1247.64 1412.31C1249.58 1409.28 1250.55 1405.84 1250.55 1402.01V1390.43C1249.6 1391.05 1248.3 1391.62 1246.64 1392.14C1245.03 1392.61 1243.21 1393.06 1241.18 1393.49C1239.14 1393.86 1237.1 1394.22 1235.07 1394.55C1233.03 1394.84 1231.18 1395.1 1229.53 1395.33C1225.98 1395.85 1222.88 1396.68 1220.22 1397.82C1217.57 1398.95 1215.51 1400.49 1214.04 1402.43C1212.58 1404.33 1211.84 1406.7 1211.84 1409.54C1211.84 1413.66 1213.33 1416.8 1216.32 1418.98C1219.35 1421.11 1223.18 1422.18 1227.82 1422.18ZM1362.09 1331.91V1354.64H1296.4V1331.91H1362.09ZM1311.31 1305.77H1341.57V1407.48C1341.57 1410.27 1341.99 1412.45 1342.84 1414.01C1343.7 1415.53 1344.88 1416.59 1346.4 1417.21C1347.96 1417.82 1349.76 1418.13 1351.79 1418.13C1353.21 1418.13 1354.63 1418.01 1356.05 1417.78C1357.48 1417.49 1358.56 1417.28 1359.32 1417.14L1364.08 1439.65C1362.57 1440.12 1360.43 1440.67 1357.69 1441.28C1354.94 1441.95 1351.6 1442.35 1347.67 1442.49C1340.38 1442.78 1333.99 1441.8 1328.5 1439.58C1323.05 1437.35 1318.82 1433.9 1315.78 1429.21C1312.75 1424.52 1311.26 1418.6 1311.31 1411.45V1305.77ZM1412.91 1443.06C1405.95 1443.06 1399.75 1441.85 1394.3 1439.44C1388.86 1436.98 1384.55 1433.35 1381.37 1428.57C1378.25 1423.74 1376.69 1417.73 1376.69 1410.53C1376.69 1404.47 1377.8 1399.38 1380.02 1395.26C1382.25 1391.14 1385.28 1387.83 1389.12 1385.32C1392.95 1382.81 1397.31 1380.91 1402.18 1379.64C1407.11 1378.36 1412.27 1377.46 1417.67 1376.94C1424.01 1376.27 1429.13 1375.66 1433.01 1375.09C1436.89 1374.48 1439.71 1373.58 1441.46 1372.39C1443.21 1371.21 1444.09 1369.46 1444.09 1367.14V1366.71C1444.09 1362.21 1442.67 1358.73 1439.83 1356.27C1437.03 1353.81 1433.06 1352.58 1427.89 1352.58C1422.45 1352.58 1418.12 1353.78 1414.9 1356.2C1411.68 1358.57 1409.55 1361.55 1408.5 1365.15L1380.52 1362.88C1381.94 1356.25 1384.74 1350.52 1388.9 1345.69C1393.07 1340.81 1398.44 1337.07 1405.02 1334.47C1411.65 1331.81 1419.32 1330.49 1428.04 1330.49C1434.1 1330.49 1439.9 1331.2 1445.44 1332.62C1451.02 1334.04 1455.97 1336.24 1460.28 1339.22C1464.64 1342.21 1468.07 1346.04 1470.58 1350.73C1473.09 1355.37 1474.34 1360.93 1474.34 1367.42V1441H1445.65V1425.87H1444.8C1443.05 1429.28 1440.7 1432.29 1437.77 1434.89C1434.83 1437.45 1431.3 1439.46 1427.18 1440.93C1423.06 1442.35 1418.31 1443.06 1412.91 1443.06ZM1421.57 1422.18C1426.02 1422.18 1429.95 1421.3 1433.36 1419.55C1436.77 1417.75 1439.45 1415.34 1441.39 1412.31C1443.33 1409.28 1444.3 1405.84 1444.3 1402.01V1390.43C1443.35 1391.05 1442.05 1391.62 1440.39 1392.14C1438.78 1392.61 1436.96 1393.06 1434.93 1393.49C1432.89 1393.86 1430.85 1394.22 1428.82 1394.55C1426.78 1394.84 1424.93 1395.1 1423.28 1395.33C1419.73 1395.85 1416.63 1396.68 1413.97 1397.82C1411.32 1398.95 1409.26 1400.49 1407.79 1402.43C1406.33 1404.33 1405.59 1406.7 1405.59 1409.54C1405.59 1413.66 1407.08 1416.8 1410.07 1418.98C1413.1 1421.11 1416.93 1422.18 1421.57 1422.18Z" fill="#1A365D"/>
<path d="M500.5 1452.38H565.812V1465.19H513.312V1490.81H558.125V1503.62H513.312V1529.19H565.812V1542H500.5V1452.38ZM642.625 1542H630.312V1487.75H596V1542H583.75V1475.44H596V1487.19C596.083 1485.56 596.458 1484.04 597.125 1482.62C597.792 1481.17 598.667 1479.92 599.75 1478.88C600.875 1477.79 602.167 1476.96 603.625 1476.38C605.083 1475.75 606.646 1475.44 608.312 1475.44H630.312C632.021 1475.44 633.625 1475.77 635.125 1476.44C636.625 1477.06 637.917 1477.94 639 1479.06C640.125 1480.15 641 1481.44 641.625 1482.94C642.292 1484.44 642.625 1486.04 642.625 1487.75V1542ZM663.125 1487.75C663.125 1486.04 663.438 1484.44 664.062 1482.94C664.729 1481.44 665.604 1480.15 666.688 1479.06C667.812 1477.94 669.125 1477.06 670.625 1476.44C672.125 1475.77 673.708 1475.44 675.375 1475.44H697.438C699.062 1475.44 700.604 1475.75 702.062 1476.38C703.521 1476.96 704.792 1477.79 705.875 1478.88C707 1479.92 707.896 1481.17 708.562 1482.62C709.271 1484.04 709.646 1485.56 709.688 1487.19V1475.44H722V1556.56C722 1558.27 721.667 1559.88 721 1561.38C720.375 1562.88 719.5 1564.17 718.375 1565.25C717.292 1566.38 716 1567.25 714.5 1567.88C713 1568.54 711.396 1568.88 709.688 1568.88H670.812V1556.56H709.688V1539.44H675.375C673.708 1539.44 672.125 1539.12 670.625 1538.5C669.125 1537.83 667.812 1536.96 666.688 1535.88C665.604 1534.75 664.729 1533.44 664.062 1531.94C663.438 1530.44 663.125 1528.83 663.125 1527.12V1487.75ZM709.688 1527.12V1487.75H675.375V1527.12H709.688ZM755.438 1475.44V1542H743.125V1475.44H755.438ZM742.5 1449.81H756.062V1462.62H742.5V1449.81ZM835.5 1542H823.188V1487.75H788.875V1542H776.625V1475.44H788.875V1487.19C788.958 1485.56 789.333 1484.04 790 1482.62C790.667 1481.17 791.542 1479.92 792.625 1478.88C793.75 1477.79 795.042 1476.96 796.5 1476.38C797.958 1475.75 799.521 1475.44 801.188 1475.44H823.188C824.896 1475.44 826.5 1475.77 828 1476.44C829.5 1477.06 830.792 1477.94 831.875 1479.06C833 1480.15 833.875 1481.44 834.5 1482.94C835.167 1484.44 835.5 1486.04 835.5 1487.75V1542ZM912.312 1515H868.25V1529.69H912.312V1542H868.25C866.583 1542 865 1541.69 863.5 1541.06C862 1540.4 860.688 1539.52 859.562 1538.44C858.479 1537.31 857.604 1536 856.938 1534.5C856.312 1533 856 1531.4 856 1529.69V1487.75C856 1486.04 856.312 1484.44 856.938 1482.94C857.604 1481.44 858.479 1480.15 859.562 1479.06C860.688 1477.94 862 1477.06 863.5 1476.44C865 1475.77 866.583 1475.44 868.25 1475.44H900C901.708 1475.44 903.312 1475.77 904.812 1476.44C906.312 1477.06 907.604 1477.94 908.688 1479.06C909.812 1480.15 910.688 1481.44 911.312 1482.94C911.979 1484.44 912.312 1486.04 912.312 1487.75V1515ZM868.25 1487.75V1502.69H900V1487.75H868.25ZM989.188 1515H945.125V1529.69H989.188V1542H945.125C943.458 1542 941.875 1541.69 940.375 1541.06C938.875 1540.4 937.562 1539.52 936.438 1538.44C935.354 1537.31 934.479 1536 933.812 1534.5C933.188 1533 932.875 1531.4 932.875 1529.69V1487.75C932.875 1486.04 933.188 1484.44 933.812 1482.94C934.479 1481.44 935.354 1480.15 936.438 1479.06C937.562 1477.94 938.875 1477.06 940.375 1476.44C941.875 1475.77 943.458 1475.44 945.125 1475.44H976.875C978.583 1475.44 980.188 1475.77 981.688 1476.44C983.188 1477.06 984.479 1477.94 985.562 1479.06C986.688 1480.15 987.562 1481.44 988.188 1482.94C988.854 1484.44 989.188 1486.04 989.188 1487.75V1515ZM945.125 1487.75V1502.69H976.875V1487.75H945.125ZM1022 1487.75V1542H1009.75V1475.44H1022V1487.19C1022.08 1485.56 1022.46 1484.04 1023.12 1482.62C1023.79 1481.17 1024.67 1479.92 1025.75 1478.88C1026.88 1477.79 1028.17 1476.96 1029.62 1476.38C1031.08 1475.75 1032.65 1475.44 1034.31 1475.44H1047.38C1049.08 1475.44 1050.67 1475.77 1052.12 1476.44C1053.62 1477.06 1054.94 1477.94 1056.06 1479.06C1057.19 1480.15 1058.06 1481.44 1058.69 1482.94C1059.35 1484.44 1059.69 1486.04 1059.69 1487.75V1499H1047.38V1487.75H1022ZM1146.33 1534.3C1146.33 1535.37 1146.12 1536.38 1145.7 1537.31C1145.31 1538.25 1144.77 1539.07 1144.06 1539.77C1143.39 1540.45 1142.58 1541 1141.64 1541.41C1140.7 1541.8 1139.7 1542 1138.63 1542H1117.19V1558.8H1109.53V1500.4H1117.19V1507.43C1117.27 1506.44 1117.53 1505.53 1117.97 1504.7C1118.41 1503.84 1118.97 1503.09 1119.65 1502.47C1120.33 1501.82 1121.11 1501.31 1121.99 1500.95C1122.9 1500.58 1123.87 1500.4 1124.88 1500.4H1138.63C1139.7 1500.4 1140.7 1500.61 1141.64 1501.02C1142.58 1501.41 1143.39 1501.96 1144.06 1502.66C1144.77 1503.34 1145.31 1504.15 1145.7 1505.09C1146.12 1506.02 1146.33 1507.03 1146.33 1508.09V1534.3ZM1138.63 1534.3V1508.09H1117.19V1534.3H1138.63ZM1195.12 1534.3C1195.12 1535.37 1194.91 1536.38 1194.49 1537.31C1194.1 1538.25 1193.55 1539.07 1192.85 1539.77C1192.17 1540.45 1191.37 1541 1190.43 1541.41C1189.52 1541.8 1188.53 1542 1187.46 1542H1166.8C1165.76 1542 1164.77 1541.8 1163.83 1541.41C1162.89 1541 1162.07 1540.45 1161.37 1539.77C1160.69 1539.07 1160.14 1538.25 1159.73 1537.31C1159.34 1536.38 1159.14 1535.37 1159.14 1534.3V1508.09C1159.14 1507.03 1159.34 1506.02 1159.73 1505.09C1160.14 1504.15 1160.69 1503.34 1161.37 1502.66C1162.07 1501.96 1162.89 1501.41 1163.83 1501.02C1164.77 1500.61 1165.76 1500.4 1166.8 1500.4H1187.46C1188.53 1500.4 1189.52 1500.61 1190.43 1501.02C1191.37 1501.41 1192.17 1501.96 1192.85 1502.66C1193.55 1503.34 1194.1 1504.15 1194.49 1505.09C1194.91 1506.02 1195.12 1507.03 1195.12 1508.09V1534.3ZM1166.8 1508.09V1534.3H1187.46V1508.09H1166.8ZM1215.62 1508.09V1542H1207.97V1500.4H1215.62V1507.74C1215.68 1506.73 1215.91 1505.78 1216.33 1504.89C1216.74 1503.98 1217.29 1503.2 1217.97 1502.55C1218.67 1501.87 1219.48 1501.35 1220.39 1500.98C1221.3 1500.59 1222.28 1500.4 1223.32 1500.4H1231.48C1232.55 1500.4 1233.54 1500.61 1234.45 1501.02C1235.39 1501.41 1236.21 1501.96 1236.91 1502.66C1237.62 1503.34 1238.16 1504.15 1238.55 1505.09C1238.97 1506.02 1239.18 1507.03 1239.18 1508.09V1515.12H1231.48V1508.09H1215.62ZM1246.33 1500.4H1256.48V1487.59H1264.18V1500.4H1277.85V1508.09H1264.18V1534.3H1277.85V1542H1264.18C1263.14 1542 1262.15 1541.8 1261.21 1541.41C1260.27 1541 1259.45 1540.45 1258.75 1539.77C1258.05 1539.07 1257.49 1538.25 1257.07 1537.31C1256.68 1536.38 1256.48 1535.37 1256.48 1534.3V1508.09H1246.33V1500.4ZM1306.13 1492.08V1500.4H1319.8V1508.09H1306.13V1542H1298.44V1508.09H1288.28V1500.4H1298.44V1492.08C1298.44 1491.01 1298.63 1490.02 1299.02 1489.11C1299.44 1488.17 1300 1487.35 1300.7 1486.65C1301.41 1485.95 1302.23 1485.4 1303.16 1485.01C1304.1 1484.59 1305.09 1484.38 1306.13 1484.38H1319.8V1492.08H1306.13ZM1366.21 1534.3C1366.21 1535.37 1366 1536.38 1365.59 1537.31C1365.2 1538.25 1364.65 1539.07 1363.95 1539.77C1363.27 1540.45 1362.46 1541 1361.52 1541.41C1360.61 1541.8 1359.62 1542 1358.55 1542H1337.89C1336.85 1542 1335.86 1541.8 1334.92 1541.41C1333.98 1541 1333.16 1540.45 1332.46 1539.77C1331.78 1539.07 1331.24 1538.25 1330.82 1537.31C1330.43 1536.38 1330.23 1535.37 1330.23 1534.3V1508.09C1330.23 1507.03 1330.43 1506.02 1330.82 1505.09C1331.24 1504.15 1331.78 1503.34 1332.46 1502.66C1333.16 1501.96 1333.98 1501.41 1334.92 1501.02C1335.86 1500.61 1336.85 1500.4 1337.89 1500.4H1358.55C1359.62 1500.4 1360.61 1500.61 1361.52 1501.02C1362.46 1501.41 1363.27 1501.96 1363.95 1502.66C1364.65 1503.34 1365.2 1504.15 1365.59 1505.09C1366 1506.02 1366.21 1507.03 1366.21 1508.09V1534.3ZM1337.89 1508.09V1534.3H1358.55V1508.09H1337.89ZM1386.72 1484.38V1542H1379.06V1484.38H1386.72ZM1407.62 1500.4V1542H1399.92V1500.4H1407.62ZM1399.53 1484.38H1408.01V1492.39H1399.53V1484.38ZM1456.84 1534.3C1456.84 1535.37 1456.63 1536.38 1456.21 1537.31C1455.82 1538.25 1455.27 1539.07 1454.57 1539.77C1453.89 1540.45 1453.09 1541 1452.15 1541.41C1451.24 1541.8 1450.25 1542 1449.18 1542H1428.52C1427.47 1542 1426.48 1541.8 1425.55 1541.41C1424.61 1541 1423.79 1540.45 1423.09 1539.77C1422.41 1539.07 1421.86 1538.25 1421.45 1537.31C1421.05 1536.38 1420.86 1535.37 1420.86 1534.3V1508.09C1420.86 1507.03 1421.05 1506.02 1421.45 1505.09C1421.86 1504.15 1422.41 1503.34 1423.09 1502.66C1423.79 1501.96 1424.61 1501.41 1425.55 1501.02C1426.48 1500.61 1427.47 1500.4 1428.52 1500.4H1449.18C1450.25 1500.4 1451.24 1500.61 1452.15 1501.02C1453.09 1501.41 1453.89 1501.96 1454.57 1502.66C1455.27 1503.34 1455.82 1504.15 1456.21 1505.09C1456.63 1506.02 1456.84 1507.03 1456.84 1508.09V1534.3ZM1428.52 1508.09V1534.3H1449.18V1508.09H1428.52Z" fill="#521B41"/>
<g clip-path="url(#clip0_220_95)">
<path d="M1071.25 896.031C1064.62 896.041 1058.16 898.118 1052.75 901.978C1047.34 905.838 1043.24 911.293 1041.02 917.594H1021.37C1016.4 917.583 1011.49 916.409 1007.04 914.164C1002.59 911.919 998.719 908.665 995.725 904.656L974.724 876.409C980.79 872.426 985.34 866.489 987.636 859.565C989.932 852.64 989.839 845.136 987.37 838.273C984.901 831.409 980.203 825.59 974.04 821.762C967.877 817.934 960.611 816.323 953.424 817.189C946.238 818.056 939.553 821.35 934.458 826.536C929.363 831.721 926.157 838.493 925.362 845.75C924.566 853.008 926.229 860.323 930.078 866.506C933.927 872.689 939.737 877.376 946.562 879.805V948.194C939.432 950.738 933.422 955.742 929.595 962.323C925.768 968.904 924.37 976.638 925.649 984.158C926.928 991.678 930.801 998.499 936.584 1003.42C942.367 1008.33 949.687 1011.03 957.25 1011.03C964.813 1011.03 972.133 1008.33 977.916 1003.42C983.699 998.499 987.572 991.678 988.851 984.158C990.13 976.638 988.732 968.904 984.905 962.323C981.078 955.742 975.068 950.738 967.937 948.194V903.219L978.625 917.594C983.615 924.275 990.072 929.699 997.49 933.44C1004.91 937.181 1013.08 939.137 1021.37 939.156H1041.02C1042.98 944.747 1046.43 949.686 1050.98 953.435C1055.54 957.184 1061.02 959.597 1066.85 960.412C1072.67 961.227 1078.6 960.411 1083.99 958.054C1089.39 955.697 1094.04 951.89 1097.43 947.048C1100.82 942.207 1102.83 936.517 1103.24 930.601C1103.64 924.686 1102.43 918.772 1099.72 913.506C1097.02 908.24 1092.94 903.825 1087.92 900.743C1082.89 897.661 1077.13 896.031 1071.25 896.031ZM957.25 838.531C959.364 838.531 961.43 839.163 963.188 840.348C964.945 841.533 966.315 843.217 967.124 845.187C967.933 847.157 968.145 849.324 967.732 851.416C967.32 853.507 966.302 855.428 964.807 856.936C963.313 858.444 961.408 859.47 959.335 859.886C957.262 860.302 955.113 860.089 953.16 859.273C951.207 858.457 949.538 857.075 948.364 855.302C947.189 853.529 946.562 851.445 946.562 849.312C946.562 846.453 947.688 843.711 949.693 841.689C951.697 839.667 954.415 838.531 957.25 838.531ZM957.25 989.469C955.136 989.469 953.07 988.836 951.312 987.652C949.555 986.467 948.185 984.783 947.376 982.813C946.567 980.843 946.355 978.675 946.768 976.584C947.18 974.493 948.198 972.572 949.693 971.064C951.187 969.556 953.092 968.529 955.165 968.113C957.238 967.697 959.387 967.911 961.34 968.727C963.293 969.543 964.962 970.925 966.136 972.698C967.311 974.471 967.937 976.555 967.937 978.687C967.937 981.547 966.811 984.289 964.807 986.311C962.803 988.333 960.084 989.469 957.25 989.469ZM1071.25 939.156C1069.14 939.156 1067.07 938.524 1065.31 937.339C1063.55 936.155 1062.18 934.471 1061.38 932.501C1060.57 930.531 1060.36 928.363 1060.77 926.272C1061.18 924.18 1062.2 922.259 1063.69 920.751C1065.19 919.244 1067.09 918.217 1069.16 917.801C1071.24 917.385 1073.39 917.598 1075.34 918.414C1077.29 919.23 1078.96 920.612 1080.14 922.385C1081.31 924.158 1081.94 926.243 1081.94 928.375C1081.94 931.234 1080.81 933.977 1078.81 935.998C1076.8 938.02 1074.08 939.156 1071.25 939.156Z" fill="#2D3748"/>
<path d="M950.68 979.291V938.875C950.68 937.267 951.293 935.725 952.385 934.588C953.476 933.451 954.956 932.812 956.5 932.812C958.044 932.812 959.524 933.451 960.615 934.588C961.707 935.725 962.32 937.267 962.32 938.875V979.291C962.32 980.899 961.707 982.441 960.615 983.578C959.524 984.715 958.044 985.354 956.5 985.354C954.956 985.354 953.476 984.715 952.385 983.578C951.293 982.441 950.68 980.899 950.68 979.291ZM982.957 937.864C981.664 937.035 980.112 936.765 978.631 937.111C977.151 937.457 975.858 938.392 975.029 939.716C974.201 941.041 973.901 942.65 974.195 944.201C974.49 945.752 975.353 947.122 976.603 948.019C987.254 955.228 993.36 966.661 993.36 979.291C993.36 989.475 989.477 999.241 982.564 1006.44C975.651 1013.64 966.276 1017.69 956.5 1017.69C946.724 1017.69 937.349 1013.64 930.436 1006.44C923.523 999.241 919.64 989.475 919.64 979.291C919.64 966.661 925.746 955.228 936.397 947.994C937.58 947.07 938.381 945.712 938.638 944.195C938.895 942.678 938.587 941.116 937.779 939.827C936.97 938.537 935.72 937.617 934.283 937.252C932.847 936.888 931.331 937.107 930.043 937.864C916.032 947.352 908 962.463 908 979.291C908 992.69 913.11 1005.54 922.205 1015.02C931.301 1024.49 943.637 1029.81 956.5 1029.81C969.363 1029.81 981.699 1024.49 990.795 1015.02C999.89 1005.54 1005 992.69 1005 979.291C1005 962.463 996.968 947.352 982.957 937.864Z" fill="#451157"/>
</g>
<defs>
<clipPath id="clip0_220_95">
<rect width="228" height="230" fill="white" transform="translate(886 799)"/>
</clipPath>
</defs>
</svg>
