<svg width="2000" height="2000" viewBox="0 0 2000 2000" fill="none" xmlns="http://www.w3.org/2000/svg">
<path d="M0 0H2000V2000H0V0Z" fill="#570F41"/>
<rect x="225.5" y="225.5" width="1559" height="1559" rx="779.5" fill="#D9D9D9" stroke="black"/>
<path d="M1026.75 1230H768.941V502.727H1028.88C1102.04 502.727 1165.01 517.287 1217.8 546.406C1270.6 575.289 1311.2 616.837 1339.61 671.051C1368.25 725.265 1382.58 790.133 1382.58 865.653C1382.58 941.411 1368.25 1006.52 1339.61 1060.97C1311.2 1115.42 1270.36 1157.2 1217.09 1186.32C1164.06 1215.44 1100.62 1230 1026.75 1230ZM922.705 1098.25H1020.36C1065.82 1098.25 1104.05 1090.2 1135.06 1074.11C1166.31 1057.77 1189.75 1032.56 1205.38 998.466C1221.24 964.138 1229.17 919.867 1229.17 865.653C1229.17 811.913 1221.24 767.997 1205.38 733.906C1189.75 699.815 1166.43 674.721 1135.42 658.622C1104.4 642.524 1066.17 634.474 1020.72 634.474H922.705V1098.25Z" fill="#521B41"/>
<path d="M592.803 1293.38C592.234 1287.65 589.796 1283.2 585.487 1280.03C581.178 1276.85 575.331 1275.27 567.945 1275.27C562.926 1275.27 558.688 1275.98 555.231 1277.4C551.775 1278.77 549.124 1280.69 547.277 1283.15C545.478 1285.61 544.578 1288.41 544.578 1291.53C544.483 1294.14 545.028 1296.41 546.212 1298.35C547.443 1300.29 549.124 1301.97 551.254 1303.39C553.385 1304.77 555.847 1305.97 558.641 1307.01C561.434 1308.01 564.417 1308.86 567.589 1309.57L580.658 1312.7C587.002 1314.12 592.826 1316.01 598.129 1318.38C603.432 1320.75 608.025 1323.66 611.908 1327.11C615.79 1330.57 618.797 1334.64 620.928 1339.33C623.106 1344.02 624.218 1349.39 624.266 1355.45C624.218 1364.35 621.946 1372.07 617.447 1378.61C612.997 1385.09 606.557 1390.13 598.129 1393.73C589.749 1397.28 579.64 1399.06 567.803 1399.06C556.06 1399.06 545.833 1397.26 537.121 1393.66C528.456 1390.06 521.685 1384.74 516.808 1377.68C511.979 1370.58 509.445 1361.8 509.209 1351.33H538.967C539.299 1356.21 540.695 1360.28 543.158 1363.55C545.667 1366.77 549.005 1369.21 553.172 1370.86C557.386 1372.47 562.144 1373.28 567.447 1373.28C572.656 1373.28 577.178 1372.52 581.013 1371.01C584.895 1369.49 587.902 1367.38 590.033 1364.68C592.163 1361.99 593.229 1358.88 593.229 1355.38C593.229 1352.11 592.258 1349.37 590.317 1347.14C588.423 1344.92 585.629 1343.02 581.936 1341.46C578.29 1339.9 573.816 1338.48 568.513 1337.2L552.675 1333.22C540.411 1330.24 530.729 1325.57 523.626 1319.23C516.524 1312.89 512.997 1304.34 513.044 1293.59C512.997 1284.78 515.34 1277.09 520.075 1270.51C524.857 1263.93 531.415 1258.79 539.749 1255.1C548.082 1251.4 557.552 1249.56 568.158 1249.56C578.953 1249.56 588.375 1251.4 596.425 1255.1C604.521 1258.79 610.819 1263.93 615.317 1270.51C619.815 1277.09 622.135 1284.71 622.277 1293.38H592.803ZM693.673 1399.13C682.64 1399.13 673.1 1396.79 665.05 1392.1C657.048 1387.36 650.87 1380.78 646.513 1372.36C642.157 1363.88 639.979 1354.05 639.979 1342.88C639.979 1331.61 642.157 1321.76 646.513 1313.34C650.87 1304.86 657.048 1298.28 665.05 1293.59C673.1 1288.86 682.64 1286.49 693.673 1286.49C704.705 1286.49 714.222 1288.86 722.224 1293.59C730.273 1298.28 736.476 1304.86 740.832 1313.34C745.188 1321.76 747.366 1331.61 747.366 1342.88C747.366 1354.05 745.188 1363.88 740.832 1372.36C736.476 1380.78 730.273 1387.36 722.224 1392.1C714.222 1396.79 704.705 1399.13 693.673 1399.13ZM693.815 1375.69C698.834 1375.69 703.024 1374.27 706.386 1371.43C709.747 1368.54 712.28 1364.61 713.985 1359.64C715.737 1354.67 716.613 1349.01 716.613 1342.67C716.613 1336.32 715.737 1330.66 713.985 1325.69C712.28 1320.72 709.747 1316.79 706.386 1313.9C703.024 1311.02 698.834 1309.57 693.815 1309.57C688.748 1309.57 684.487 1311.02 681.03 1313.9C677.621 1316.79 675.041 1320.72 673.289 1325.69C671.584 1330.66 670.732 1336.32 670.732 1342.67C670.732 1349.01 671.584 1354.67 673.289 1359.64C675.041 1364.61 677.621 1368.54 681.03 1371.43C684.487 1374.27 688.748 1375.69 693.815 1375.69ZM825.704 1287.91V1310.64H758.374V1287.91H825.704ZM773.786 1397V1280.03C773.786 1272.12 775.325 1265.56 778.403 1260.35C781.528 1255.14 785.789 1251.24 791.187 1248.63C796.584 1246.03 802.716 1244.73 809.582 1244.73C814.222 1244.73 818.459 1245.08 822.295 1245.79C826.177 1246.5 829.066 1247.14 830.959 1247.71L825.562 1270.44C824.378 1270.06 822.91 1269.7 821.158 1269.37C819.454 1269.04 817.702 1268.88 815.903 1268.88C811.452 1268.88 808.351 1269.92 806.599 1272C804.847 1274.04 803.971 1276.9 803.971 1280.59V1397H773.786ZM902.213 1287.91V1310.64H836.517V1287.91H902.213ZM851.432 1261.77H881.687V1363.48C881.687 1366.27 882.114 1368.45 882.966 1370.01C883.818 1371.53 885.002 1372.59 886.517 1373.21C888.079 1373.82 889.879 1374.13 891.915 1374.13C893.335 1374.13 894.756 1374.01 896.176 1373.78C897.597 1373.49 898.686 1373.28 899.443 1373.14L904.202 1395.65C902.687 1396.12 900.556 1396.67 897.81 1397.28C895.063 1397.95 891.725 1398.35 887.795 1398.49C880.504 1398.78 874.112 1397.8 868.619 1395.58C863.174 1393.35 858.937 1389.9 855.906 1385.21C852.876 1380.52 851.384 1374.6 851.432 1367.45V1261.77ZM966.524 1399.13C956.581 1399.13 948.035 1397.33 940.885 1393.73C933.735 1390.13 928.219 1385.28 924.337 1379.17C920.501 1373.02 918.584 1366.08 918.584 1358.36C918.584 1352.54 919.767 1347.38 922.135 1342.88C924.55 1338.38 927.864 1334.22 932.078 1330.38C936.339 1326.55 941.264 1322.73 946.851 1318.95L972.632 1301.4C976.42 1298.94 979.285 1296.34 981.226 1293.59C983.214 1290.84 984.209 1287.62 984.209 1283.93C984.209 1280.81 982.883 1277.85 980.231 1275.05C977.627 1272.26 974.029 1270.86 969.436 1270.86C966.358 1270.86 963.636 1271.6 961.268 1273.07C958.948 1274.49 957.125 1276.36 955.8 1278.68C954.521 1281 953.882 1283.46 953.882 1286.06C953.882 1289.23 954.758 1292.45 956.51 1295.72C958.309 1298.99 960.629 1302.37 963.47 1305.88C966.358 1309.38 969.436 1313.1 972.703 1317.03L1040.96 1397H1013.12L956.439 1332.09C952.225 1327.16 948.153 1322.31 944.223 1317.53C940.34 1312.74 937.144 1307.77 934.635 1302.61C932.173 1297.4 930.942 1291.77 930.942 1285.71C930.942 1278.84 932.528 1272.71 935.7 1267.31C938.873 1261.87 943.3 1257.58 948.981 1254.46C954.711 1251.33 961.41 1249.77 969.081 1249.77C976.751 1249.77 983.333 1251.29 988.825 1254.32C994.318 1257.35 998.555 1261.37 1001.54 1266.39C1004.52 1271.41 1006.01 1276.88 1006.01 1282.8C1006.01 1289.66 1004.31 1295.82 1000.9 1301.26C997.49 1306.66 992.755 1311.56 986.695 1315.96L957.291 1337.48C952.462 1340.99 949.005 1344.54 946.922 1348.14C944.838 1351.69 943.797 1354.72 943.797 1357.23C943.797 1361.06 944.767 1364.54 946.709 1367.67C948.65 1370.79 951.373 1373.3 954.876 1375.2C958.428 1377.04 962.57 1377.97 967.305 1377.97C972.514 1377.97 977.651 1376.81 982.717 1374.49C987.784 1372.12 992.4 1368.76 996.567 1364.4C1000.73 1360.04 1004.05 1354.84 1006.51 1348.78C1008.97 1342.67 1010.2 1335.9 1010.2 1328.46H1032.29C1032.29 1337.65 1031.27 1345.65 1029.24 1352.47C1027.2 1359.24 1024.57 1364.97 1021.35 1369.66C1018.13 1374.3 1014.72 1378.01 1011.13 1380.81C1009.99 1381.61 1008.9 1382.42 1007.86 1383.22C1006.82 1384.03 1005.73 1384.83 1004.59 1385.64C999.479 1390.28 993.489 1393.69 986.624 1395.86C979.805 1398.04 973.106 1399.13 966.524 1399.13ZM1106.67 1397H1055.11V1251.55H1107.1C1121.73 1251.55 1134.32 1254.46 1144.88 1260.28C1155.44 1266.06 1163.56 1274.37 1169.24 1285.21C1174.97 1296.05 1177.83 1309.03 1177.83 1324.13C1177.83 1339.28 1174.97 1352.3 1169.24 1363.19C1163.56 1374.08 1155.39 1382.44 1144.74 1388.26C1134.13 1394.09 1121.44 1397 1106.67 1397ZM1085.86 1370.65H1105.39C1114.48 1370.65 1122.13 1369.04 1128.33 1365.82C1134.58 1362.55 1139.27 1357.51 1142.39 1350.69C1145.57 1343.83 1147.15 1334.97 1147.15 1324.13C1147.15 1313.38 1145.57 1304.6 1142.39 1297.78C1139.27 1290.96 1134.61 1285.94 1128.4 1282.72C1122.2 1279.5 1114.55 1277.89 1105.46 1277.89H1085.86V1370.65ZM1231.15 1399.06C1224.19 1399.06 1217.99 1397.85 1212.55 1395.44C1207.1 1392.98 1202.79 1389.35 1199.62 1384.57C1196.5 1379.74 1194.93 1373.73 1194.93 1366.53C1194.93 1360.47 1196.05 1355.38 1198.27 1351.26C1200.5 1347.14 1203.53 1343.83 1207.36 1341.32C1211.2 1338.81 1215.55 1336.91 1220.43 1335.64C1225.35 1334.36 1230.52 1333.46 1235.91 1332.94C1242.26 1332.27 1247.37 1331.66 1251.25 1331.09C1255.14 1330.48 1257.95 1329.58 1259.71 1328.39C1261.46 1327.21 1262.33 1325.46 1262.33 1323.14V1322.71C1262.33 1318.21 1260.91 1314.73 1258.07 1312.27C1255.28 1309.81 1251.3 1308.58 1246.14 1308.58C1240.7 1308.58 1236.36 1309.78 1233.14 1312.2C1229.92 1314.57 1227.79 1317.55 1226.75 1321.15L1198.77 1318.88C1200.19 1312.25 1202.98 1306.52 1207.15 1301.69C1211.32 1296.81 1216.69 1293.07 1223.27 1290.47C1229.9 1287.81 1237.57 1286.49 1246.28 1286.49C1252.34 1286.49 1258.14 1287.2 1263.68 1288.62C1269.27 1290.04 1274.22 1292.24 1278.53 1295.22C1282.88 1298.21 1286.32 1302.04 1288.83 1306.73C1291.33 1311.37 1292.59 1316.93 1292.59 1323.42V1397H1263.9V1381.87H1263.04C1261.29 1385.28 1258.95 1388.29 1256.01 1390.89C1253.08 1393.45 1249.55 1395.46 1245.43 1396.93C1241.31 1398.35 1236.55 1399.06 1231.15 1399.06ZM1239.82 1378.18C1244.27 1378.18 1248.2 1377.3 1251.61 1375.55C1255.02 1373.75 1257.69 1371.34 1259.63 1368.31C1261.58 1365.28 1262.55 1361.84 1262.55 1358.01V1346.43C1261.6 1347.05 1260.3 1347.62 1258.64 1348.14C1257.03 1348.61 1255.21 1349.06 1253.17 1349.49C1251.14 1349.86 1249.1 1350.22 1247.06 1350.55C1245.03 1350.84 1243.18 1351.1 1241.52 1351.33C1237.97 1351.85 1234.87 1352.68 1232.22 1353.82C1229.57 1354.95 1227.51 1356.49 1226.04 1358.43C1224.57 1360.33 1223.84 1362.7 1223.84 1365.54C1223.84 1369.66 1225.33 1372.8 1228.31 1374.98C1231.34 1377.11 1235.18 1378.18 1239.82 1378.18ZM1374.09 1287.91V1310.64H1308.39V1287.91H1374.09ZM1323.31 1261.77H1353.56V1363.48C1353.56 1366.27 1353.99 1368.45 1354.84 1370.01C1355.69 1371.53 1356.88 1372.59 1358.39 1373.21C1359.95 1373.82 1361.75 1374.13 1363.79 1374.13C1365.21 1374.13 1366.63 1374.01 1368.05 1373.78C1369.47 1373.49 1370.56 1373.28 1371.32 1373.14L1376.08 1395.65C1374.56 1396.12 1372.43 1396.67 1369.68 1397.28C1366.94 1397.95 1363.6 1398.35 1359.67 1398.49C1352.38 1398.78 1345.99 1397.8 1340.49 1395.58C1335.05 1393.35 1330.81 1389.9 1327.78 1385.21C1324.75 1380.52 1323.26 1374.6 1323.31 1367.45V1261.77ZM1424.9 1399.06C1417.94 1399.06 1411.74 1397.85 1406.3 1395.44C1400.85 1392.98 1396.54 1389.35 1393.37 1384.57C1390.25 1379.74 1388.68 1373.73 1388.68 1366.53C1388.68 1360.47 1389.8 1355.38 1392.02 1351.26C1394.25 1347.14 1397.28 1343.83 1401.11 1341.32C1404.95 1338.81 1409.3 1336.91 1414.18 1335.64C1419.1 1334.36 1424.27 1333.46 1429.66 1332.94C1436.01 1332.27 1441.12 1331.66 1445 1331.09C1448.89 1330.48 1451.7 1329.58 1453.46 1328.39C1455.21 1327.21 1456.08 1325.46 1456.08 1323.14V1322.71C1456.08 1318.21 1454.66 1314.73 1451.82 1312.27C1449.03 1309.81 1445.05 1308.58 1439.89 1308.58C1434.45 1308.58 1430.11 1309.78 1426.89 1312.2C1423.67 1314.57 1421.54 1317.55 1420.5 1321.15L1392.52 1318.88C1393.94 1312.25 1396.73 1306.52 1400.9 1301.69C1405.07 1296.81 1410.44 1293.07 1417.02 1290.47C1423.65 1287.81 1431.32 1286.49 1440.03 1286.49C1446.09 1286.49 1451.89 1287.2 1457.43 1288.62C1463.02 1290.04 1467.97 1292.24 1472.28 1295.22C1476.63 1298.21 1480.07 1302.04 1482.58 1306.73C1485.08 1311.37 1486.34 1316.93 1486.34 1323.42V1397H1457.65V1381.87H1456.79C1455.04 1385.28 1452.7 1388.29 1449.76 1390.89C1446.83 1393.45 1443.3 1395.46 1439.18 1396.93C1435.06 1398.35 1430.3 1399.06 1424.9 1399.06ZM1433.57 1378.18C1438.02 1378.18 1441.95 1377.3 1445.36 1375.55C1448.77 1373.75 1451.44 1371.34 1453.38 1368.31C1455.33 1365.28 1456.3 1361.84 1456.3 1358.01V1346.43C1455.35 1347.05 1454.05 1347.62 1452.39 1348.14C1450.78 1348.61 1448.96 1349.06 1446.92 1349.49C1444.89 1349.86 1442.85 1350.22 1440.81 1350.55C1438.78 1350.84 1436.93 1351.1 1435.27 1351.33C1431.72 1351.85 1428.62 1352.68 1425.97 1353.82C1423.32 1354.95 1421.26 1356.49 1419.79 1358.43C1418.32 1360.33 1417.59 1362.7 1417.59 1365.54C1417.59 1369.66 1419.08 1372.8 1422.06 1374.98C1425.09 1377.11 1428.93 1378.18 1433.57 1378.18Z" fill="#1A365D"/>
<path d="M512.496 1408.38H577.809V1421.19H525.309V1446.81H570.121V1459.62H525.309V1485.19H577.809V1498H512.496V1408.38ZM654.621 1498H642.309V1443.75H607.996V1498H595.746V1431.44H607.996V1443.19C608.08 1441.56 608.455 1440.04 609.121 1438.62C609.788 1437.17 610.663 1435.92 611.746 1434.88C612.871 1433.79 614.163 1432.96 615.621 1432.38C617.08 1431.75 618.642 1431.44 620.309 1431.44H642.309C644.017 1431.44 645.621 1431.77 647.121 1432.44C648.621 1433.06 649.913 1433.94 650.996 1435.06C652.121 1436.15 652.996 1437.44 653.621 1438.94C654.288 1440.44 654.621 1442.04 654.621 1443.75V1498ZM675.121 1443.75C675.121 1442.04 675.434 1440.44 676.059 1438.94C676.726 1437.44 677.601 1436.15 678.684 1435.06C679.809 1433.94 681.121 1433.06 682.621 1432.44C684.121 1431.77 685.705 1431.44 687.371 1431.44H709.434C711.059 1431.44 712.601 1431.75 714.059 1432.38C715.517 1432.96 716.788 1433.79 717.871 1434.88C718.996 1435.92 719.892 1437.17 720.559 1438.62C721.267 1440.04 721.642 1441.56 721.684 1443.19V1431.44H733.996V1512.56C733.996 1514.27 733.663 1515.88 732.996 1517.38C732.371 1518.88 731.496 1520.17 730.371 1521.25C729.288 1522.38 727.996 1523.25 726.496 1523.88C724.996 1524.54 723.392 1524.88 721.684 1524.88H682.809V1512.56H721.684V1495.44H687.371C685.705 1495.44 684.121 1495.12 682.621 1494.5C681.121 1493.83 679.809 1492.96 678.684 1491.88C677.601 1490.75 676.726 1489.44 676.059 1487.94C675.434 1486.44 675.121 1484.83 675.121 1483.12V1443.75ZM721.684 1483.12V1443.75H687.371V1483.12H721.684ZM767.434 1431.44V1498H755.121V1431.44H767.434ZM754.496 1405.81H768.059V1418.62H754.496V1405.81ZM847.496 1498H835.184V1443.75H800.871V1498H788.621V1431.44H800.871V1443.19C800.955 1441.56 801.33 1440.04 801.996 1438.62C802.663 1437.17 803.538 1435.92 804.621 1434.88C805.746 1433.79 807.038 1432.96 808.496 1432.38C809.955 1431.75 811.517 1431.44 813.184 1431.44H835.184C836.892 1431.44 838.496 1431.77 839.996 1432.44C841.496 1433.06 842.788 1433.94 843.871 1435.06C844.996 1436.15 845.871 1437.44 846.496 1438.94C847.163 1440.44 847.496 1442.04 847.496 1443.75V1498ZM924.309 1471H880.246V1485.69H924.309V1498H880.246C878.58 1498 876.996 1497.69 875.496 1497.06C873.996 1496.4 872.684 1495.52 871.559 1494.44C870.476 1493.31 869.601 1492 868.934 1490.5C868.309 1489 867.996 1487.4 867.996 1485.69V1443.75C867.996 1442.04 868.309 1440.44 868.934 1438.94C869.601 1437.44 870.476 1436.15 871.559 1435.06C872.684 1433.94 873.996 1433.06 875.496 1432.44C876.996 1431.77 878.58 1431.44 880.246 1431.44H911.996C913.705 1431.44 915.309 1431.77 916.809 1432.44C918.309 1433.06 919.601 1433.94 920.684 1435.06C921.809 1436.15 922.684 1437.44 923.309 1438.94C923.976 1440.44 924.309 1442.04 924.309 1443.75V1471ZM880.246 1443.75V1458.69H911.996V1443.75H880.246ZM1001.18 1471H957.121V1485.69H1001.18V1498H957.121C955.455 1498 953.871 1497.69 952.371 1497.06C950.871 1496.4 949.559 1495.52 948.434 1494.44C947.351 1493.31 946.476 1492 945.809 1490.5C945.184 1489 944.871 1487.4 944.871 1485.69V1443.75C944.871 1442.04 945.184 1440.44 945.809 1438.94C946.476 1437.44 947.351 1436.15 948.434 1435.06C949.559 1433.94 950.871 1433.06 952.371 1432.44C953.871 1431.77 955.455 1431.44 957.121 1431.44H988.871C990.58 1431.44 992.184 1431.77 993.684 1432.44C995.184 1433.06 996.476 1433.94 997.559 1435.06C998.684 1436.15 999.559 1437.44 1000.18 1438.94C1000.85 1440.44 1001.18 1442.04 1001.18 1443.75V1471ZM957.121 1443.75V1458.69H988.871V1443.75H957.121ZM1034 1443.75V1498H1021.75V1431.44H1034V1443.19C1034.08 1441.56 1034.45 1440.04 1035.12 1438.62C1035.79 1437.17 1036.66 1435.92 1037.75 1434.88C1038.87 1433.79 1040.16 1432.96 1041.62 1432.38C1043.08 1431.75 1044.64 1431.44 1046.31 1431.44H1059.37C1061.08 1431.44 1062.66 1431.77 1064.12 1432.44C1065.62 1433.06 1066.93 1433.94 1068.06 1435.06C1069.18 1436.15 1070.06 1437.44 1070.68 1438.94C1071.35 1440.44 1071.68 1442.04 1071.68 1443.75V1455H1059.37V1443.75H1034Z" fill="#521B41"/>
<path d="M1158.32 1490.3C1158.32 1491.37 1158.12 1492.38 1157.7 1493.31C1157.31 1494.25 1156.76 1495.07 1156.06 1495.77C1155.38 1496.45 1154.57 1497 1153.64 1497.41C1152.7 1497.8 1151.7 1498 1150.63 1498H1129.18V1514.8H1121.53V1456.4H1129.18V1463.43C1129.26 1462.44 1129.52 1461.53 1129.97 1460.7C1130.41 1459.84 1130.97 1459.09 1131.64 1458.47C1132.32 1457.82 1133.1 1457.31 1133.99 1456.95C1134.9 1456.58 1135.86 1456.4 1136.88 1456.4H1150.63C1151.7 1456.4 1152.7 1456.61 1153.64 1457.02C1154.57 1457.41 1155.38 1457.96 1156.06 1458.66C1156.76 1459.34 1157.31 1460.15 1157.7 1461.09C1158.12 1462.02 1158.32 1463.03 1158.32 1464.09V1490.3ZM1150.63 1490.3V1464.09H1129.18V1490.3H1150.63ZM1207.11 1490.3C1207.11 1491.37 1206.91 1492.38 1206.49 1493.31C1206.1 1494.25 1205.55 1495.07 1204.85 1495.77C1204.17 1496.45 1203.36 1497 1202.43 1497.41C1201.51 1497.8 1200.53 1498 1199.46 1498H1178.79C1177.75 1498 1176.76 1497.8 1175.82 1497.41C1174.89 1497 1174.07 1496.45 1173.36 1495.77C1172.69 1495.07 1172.14 1494.25 1171.72 1493.31C1171.33 1492.38 1171.14 1491.37 1171.14 1490.3V1464.09C1171.14 1463.03 1171.33 1462.02 1171.72 1461.09C1172.14 1460.15 1172.69 1459.34 1173.36 1458.66C1174.07 1457.96 1174.89 1457.41 1175.82 1457.02C1176.76 1456.61 1177.75 1456.4 1178.79 1456.4H1199.46C1200.53 1456.4 1201.51 1456.61 1202.43 1457.02C1203.36 1457.41 1204.17 1457.96 1204.85 1458.66C1205.55 1459.34 1206.1 1460.15 1206.49 1461.09C1206.91 1462.02 1207.11 1463.03 1207.11 1464.09V1490.3ZM1178.79 1464.09V1490.3H1199.46V1464.09H1178.79ZM1227.62 1464.09V1498H1219.97V1456.4H1227.62V1463.74C1227.67 1462.73 1227.91 1461.78 1228.32 1460.89C1228.74 1459.98 1229.29 1459.2 1229.97 1458.55C1230.67 1457.87 1231.48 1457.35 1232.39 1456.98C1233.3 1456.59 1234.28 1456.4 1235.32 1456.4H1243.48C1244.55 1456.4 1245.54 1456.61 1246.45 1457.02C1247.39 1457.41 1248.21 1457.96 1248.91 1458.66C1249.61 1459.34 1250.16 1460.15 1250.55 1461.09C1250.97 1462.02 1251.18 1463.03 1251.18 1464.09V1471.12H1243.48V1464.09H1227.62ZM1258.32 1456.4H1268.48V1443.59H1276.18V1456.4H1289.85V1464.09H1276.18V1490.3H1289.85V1498H1276.18C1275.13 1498 1274.14 1497.8 1273.21 1497.41C1272.27 1497 1271.45 1496.45 1270.75 1495.77C1270.04 1495.07 1269.48 1494.25 1269.07 1493.31C1268.68 1492.38 1268.48 1491.37 1268.48 1490.3V1464.09H1258.32V1456.4ZM1318.13 1448.08V1456.4H1331.8V1464.09H1318.13V1498H1310.43V1464.09H1300.28V1456.4H1310.43V1448.08C1310.43 1447.01 1310.63 1446.02 1311.02 1445.11C1311.44 1444.17 1312 1443.35 1312.7 1442.65C1313.4 1441.95 1314.22 1441.4 1315.16 1441.01C1316.1 1440.59 1317.09 1440.38 1318.13 1440.38H1331.8V1448.08H1318.13ZM1378.21 1490.3C1378.21 1491.37 1378 1492.38 1377.58 1493.31C1377.19 1494.25 1376.64 1495.07 1375.94 1495.77C1375.26 1496.45 1374.46 1497 1373.52 1497.41C1372.61 1497.8 1371.62 1498 1370.55 1498H1349.89C1348.85 1498 1347.86 1497.8 1346.92 1497.41C1345.98 1497 1345.16 1496.45 1344.46 1495.77C1343.78 1495.07 1343.23 1494.25 1342.82 1493.31C1342.43 1492.38 1342.23 1491.37 1342.23 1490.3V1464.09C1342.23 1463.03 1342.43 1462.02 1342.82 1461.09C1343.23 1460.15 1343.78 1459.34 1344.46 1458.66C1345.16 1457.96 1345.98 1457.41 1346.92 1457.02C1347.86 1456.61 1348.85 1456.4 1349.89 1456.4H1370.55C1371.62 1456.4 1372.61 1456.61 1373.52 1457.02C1374.46 1457.41 1375.26 1457.96 1375.94 1458.66C1376.64 1459.34 1377.19 1460.15 1377.58 1461.09C1378 1462.02 1378.21 1463.03 1378.21 1464.09V1490.3ZM1349.89 1464.09V1490.3H1370.55V1464.09H1349.89ZM1398.72 1440.38V1498H1391.06V1440.38H1398.72ZM1419.61 1456.4V1498H1411.92V1456.4H1419.61ZM1411.53 1440.38H1420V1448.39H1411.53V1440.38ZM1468.83 1490.3C1468.83 1491.37 1468.62 1492.38 1468.21 1493.31C1467.82 1494.25 1467.27 1495.07 1466.57 1495.77C1465.89 1496.45 1465.08 1497 1464.14 1497.41C1463.23 1497.8 1462.24 1498 1461.18 1498H1440.51C1439.47 1498 1438.48 1497.8 1437.54 1497.41C1436.61 1497 1435.79 1496.45 1435.08 1495.77C1434.41 1495.07 1433.86 1494.25 1433.44 1493.31C1433.05 1492.38 1432.86 1491.37 1432.86 1490.3V1464.09C1432.86 1463.03 1433.05 1462.02 1433.44 1461.09C1433.86 1460.15 1434.41 1459.34 1435.08 1458.66C1435.79 1457.96 1436.61 1457.41 1437.54 1457.02C1438.48 1456.61 1439.47 1456.4 1440.51 1456.4H1461.18C1462.24 1456.4 1463.23 1456.61 1464.14 1457.02C1465.08 1457.41 1465.89 1457.96 1466.57 1458.66C1467.27 1459.34 1467.82 1460.15 1468.21 1461.09C1468.62 1462.02 1468.83 1463.03 1468.83 1464.09V1490.3ZM1440.51 1464.09V1490.3H1461.18V1464.09H1440.51Z" fill="#D16847"/>
<path d="M1140.75 860.031C1134.12 860.041 1127.66 862.118 1122.25 865.978C1116.84 869.838 1112.74 875.293 1110.52 881.594H1090.87C1085.9 881.583 1080.99 880.409 1076.54 878.164C1072.09 875.919 1068.22 872.665 1065.22 868.656L1044.22 840.409C1050.29 836.426 1054.84 830.489 1057.14 823.565C1059.43 816.64 1059.34 809.136 1056.87 802.273C1054.4 795.409 1049.7 789.59 1043.54 785.762C1037.38 781.934 1030.11 780.323 1022.92 781.189C1015.74 782.056 1009.05 785.35 1003.96 790.536C998.863 795.721 995.657 802.493 994.862 809.75C994.066 817.008 995.729 824.323 999.578 830.506C1003.43 836.689 1009.24 841.376 1016.06 843.805V912.194C1008.93 914.738 1002.92 919.742 999.095 926.323C995.268 932.904 993.87 940.638 995.149 948.158C996.428 955.678 1000.3 962.499 1006.08 967.417C1011.87 972.335 1019.19 975.032 1026.75 975.032C1034.31 975.032 1041.63 972.335 1047.42 967.417C1053.2 962.499 1057.07 955.678 1058.35 948.158C1059.63 940.638 1058.23 932.904 1054.41 926.323C1050.58 919.742 1044.57 914.738 1037.44 912.194V867.219L1048.12 881.594C1053.12 888.275 1059.57 893.699 1066.99 897.44C1074.41 901.181 1082.58 903.137 1090.87 903.156H1110.52C1112.48 908.747 1115.93 913.686 1120.48 917.435C1125.04 921.184 1130.52 923.597 1136.35 924.412C1142.17 925.227 1148.1 924.411 1153.49 922.054C1158.89 919.697 1163.54 915.89 1166.93 911.048C1170.32 906.207 1172.33 900.517 1172.74 894.601C1173.14 888.686 1171.93 882.772 1169.22 877.506C1166.52 872.24 1162.44 867.825 1157.42 864.743C1152.39 861.661 1146.63 860.031 1140.75 860.031ZM1026.75 802.531C1028.86 802.531 1030.93 803.163 1032.69 804.348C1034.45 805.533 1035.82 807.217 1036.62 809.187C1037.43 811.157 1037.64 813.324 1037.23 815.416C1036.82 817.507 1035.8 819.428 1034.31 820.936C1032.81 822.444 1030.91 823.47 1028.84 823.886C1026.76 824.302 1024.61 824.089 1022.66 823.273C1020.71 822.457 1019.04 821.075 1017.86 819.302C1016.69 817.529 1016.06 815.445 1016.06 813.312C1016.06 810.453 1017.19 807.711 1019.19 805.689C1021.2 803.667 1023.92 802.531 1026.75 802.531ZM1026.75 953.469C1024.64 953.469 1022.57 952.836 1020.81 951.652C1019.05 950.467 1017.68 948.783 1016.88 946.813C1016.07 944.843 1015.86 942.675 1016.27 940.584C1016.68 938.493 1017.7 936.572 1019.19 935.064C1020.69 933.556 1022.59 932.529 1024.66 932.113C1026.74 931.697 1028.89 931.911 1030.84 932.727C1032.79 933.543 1034.46 934.925 1035.64 936.698C1036.81 938.471 1037.44 940.555 1037.44 942.687C1037.44 945.547 1036.31 948.289 1034.31 950.311C1032.3 952.333 1029.58 953.469 1026.75 953.469ZM1140.75 903.156C1138.64 903.156 1136.57 902.524 1134.81 901.339C1133.05 900.155 1131.68 898.471 1130.88 896.501C1130.07 894.531 1129.86 892.363 1130.27 890.272C1130.68 888.18 1131.7 886.259 1133.19 884.751C1134.69 883.244 1136.59 882.217 1138.66 881.801C1140.74 881.385 1142.89 881.598 1144.84 882.414C1146.79 883.23 1148.46 884.612 1149.64 886.385C1150.81 888.158 1151.44 890.243 1151.44 892.375C1151.44 895.234 1150.31 897.977 1148.31 899.998C1146.3 902.02 1143.58 903.156 1140.75 903.156Z" fill="#2D3748"/>
<path d="M1020.18 943.292V902.875C1020.18 901.267 1020.79 899.725 1021.88 898.588C1022.98 897.451 1024.46 896.812 1026 896.812C1027.54 896.812 1029.02 897.451 1030.12 898.588C1031.21 899.725 1031.82 901.267 1031.82 902.875V943.292C1031.82 944.9 1031.21 946.442 1030.12 947.578C1029.02 948.715 1027.54 949.354 1026 949.354C1024.46 949.354 1022.98 948.715 1021.88 947.578C1020.79 946.442 1020.18 944.9 1020.18 943.292ZM1052.46 901.865C1051.16 901.036 1049.61 900.765 1048.13 901.111C1046.65 901.457 1045.36 902.392 1044.53 903.717C1043.7 905.041 1043.4 906.65 1043.7 908.201C1043.99 909.752 1044.85 911.122 1046.1 912.019C1056.75 919.229 1062.86 930.661 1062.86 943.292C1062.86 953.475 1058.98 963.241 1052.06 970.442C1045.15 977.642 1035.78 981.687 1026 981.687C1016.22 981.687 1006.85 977.642 999.936 970.442C993.023 963.241 989.14 953.475 989.14 943.292C989.14 930.661 995.246 919.229 1005.9 911.994C1007.08 911.07 1007.88 909.712 1008.14 908.195C1008.39 906.678 1008.09 905.116 1007.28 903.827C1006.47 902.537 1005.22 901.617 1003.78 901.252C1002.35 900.888 1000.83 901.107 999.543 901.865C985.532 911.352 977.5 926.463 977.5 943.292C977.5 956.691 982.61 969.541 991.705 979.015C1000.8 988.49 1013.14 993.812 1026 993.812C1038.86 993.812 1051.2 988.49 1060.29 979.015C1069.39 969.541 1074.5 956.691 1074.5 943.292C1074.5 926.463 1066.47 911.352 1052.46 901.865Z" fill="#C05621"/>
<path d="M496 1527.5L1505 1536" stroke="#1A365D" stroke-width="8"/>
<path d="M496 1547.5L1505 1556" stroke="#1A365D" stroke-width="8"/>
</svg>
